<svg width="14" height="14" viewBox="0 0 14 14" fill="none" xmlns="http://www.w3.org/2000/svg">
<path d="M7 13.3125C3.52344 13.3125 0.804688 10.6406 0.804688 7.10938C0.804688 3.5625 3.52344 0.90625 7 0.90625C10.4922 0.90625 13.1953 3.5625 13.1953 7.10938C13.1953 10.6406 10.4922 13.3125 7 13.3125ZM7 12.2188C9.86719 12.2188 12.0938 10.0312 12.0938 7.10938C12.0938 4.17188 9.86719 2 7 2C4.14844 2 1.90625 4.17188 1.90625 7.10938C1.90625 10.0312 4.14844 12.2188 7 12.2188ZM9.95312 6H8.86719C8.69531 5.32812 8.08594 4.78125 7.13281 4.78125C5.9375 4.78125 5.15625 5.65625 5.15625 7.09375C5.15625 8.55469 5.94531 9.4375 7.13281 9.4375C8.02344 9.4375 8.67188 9.02344 8.86719 8.25781H9.95312C9.76562 9.5 8.74219 10.4062 7.14062 10.4062C5.26562 10.4062 4.04688 9.14062 4.04688 7.09375C4.04688 5.08594 5.25781 3.8125 7.13281 3.8125C8.75 3.8125 9.76562 4.79688 9.95312 6Z" fill="black"/>
</svg>
