<svg width="37" height="40" viewBox="0 0 37 40" fill="none" xmlns="http://www.w3.org/2000/svg">
<path d="M18.5 38.75C17.8423 38.75 17.1961 38.5784 16.625 38.2522L3.5 30.7372C2.33937 30.0734 1.625 28.8472 1.625 27.5178V12.4841C1.625 11.1566 2.33937 9.92843 3.5 9.26281L16.625 1.74781C17.1961 1.42159 17.8423 1.25 18.5 1.25C19.1577 1.25 19.8039 1.42159 20.375 1.74781L33.5 9.26281C34.0685 9.58663 34.5413 10.0549 34.8706 10.6203C35.1998 11.1856 35.3739 11.8279 35.375 12.4822V27.5159C35.375 28.8434 34.6606 30.0716 33.5 30.7372L20.375 38.2522C19.8039 38.5784 19.1577 38.75 18.5 38.75ZM18.5 38.75V20.0009M18.5 20.0009L34.8687 10.5509M18.5 20.0009L2.13125 10.5509" stroke="#0033CC" stroke-width="2" stroke-linecap="round" stroke-linejoin="round"/>
</svg>
