<svg width="200" height="147" viewBox="0 0 200 147" fill="none" xmlns="http://www.w3.org/2000/svg">
<path d="M38.6603 9.25881C35.0864 9.80469 31.7547 11.3981 29.0865 13.8376C26.4183 16.2771 24.5335 19.4531 23.6703 22.9639C22.8072 26.4746 23.0046 30.1625 24.2376 33.5611C25.4705 36.9597 27.6836 39.9163 30.597 42.057C33.5104 44.1977 36.9931 45.4264 40.6048 45.5877C44.2166 45.7489 47.795 44.8355 50.8875 42.9629C53.9801 41.0904 56.4479 38.3427 57.9788 35.0676C59.5097 31.7924 60.035 28.1368 59.4882 24.5631C59.1259 22.1904 58.2997 19.9124 57.0569 17.8591C55.814 15.8058 54.1788 14.0175 52.2446 12.5963C50.3105 11.1751 48.1153 10.1488 45.7845 9.57618C43.4536 9.00353 41.0328 8.89569 38.6603 9.25881ZM42.7157 35.7633C41.0465 36.019 39.339 35.7737 37.8093 35.0586C36.2796 34.3435 34.9964 33.1907 34.1221 31.7461C33.2477 30.3014 32.8216 28.6299 32.8976 26.943C32.9735 25.2561 33.5482 23.6297 34.5488 22.2695C35.5495 20.9093 36.9311 19.8765 38.5189 19.3018C40.1067 18.7271 41.8293 18.6363 43.4687 19.0409C45.1082 19.4455 46.5907 20.3274 47.7288 21.5749C48.8668 22.8223 49.6093 24.3794 49.8621 26.049C50.2007 28.2846 49.6383 30.5632 48.2984 32.3845C46.9586 34.2058 44.9507 35.4211 42.7157 35.7633Z" fill="#0033CC" fill-opacity="0.2"/>
<path d="M42.2489 9.47925L35.3003 10.543L34.9355 5.56676L41.1145 4.61922L42.2489 9.47925Z" fill="#0033CC" fill-opacity="0.2"/>
<path d="M29.3859 13.8429L25.2261 19.5098L21.4456 16.2471L25.1444 11.2127L29.3859 13.8429Z" fill="#0033CC" fill-opacity="0.2"/>
<path d="M23.3728 26.0239L24.4365 32.9725L19.4603 33.3373L18.5182 27.1596L23.3728 26.0239Z" fill="#0033CC" fill-opacity="0.2"/>
<path d="M27.7366 38.8883L33.4023 43.0535L30.1409 46.8286L25.1064 43.1298L27.7366 38.8883Z" fill="#0033CC" fill-opacity="0.2"/>
<path d="M39.9175 44.9004L46.8662 43.8367L47.2364 48.8142L41.0574 49.7618L39.9175 44.9004Z" fill="#0033CC" fill-opacity="0.2"/>
<path d="M52.7815 40.5382L56.9453 34.878L60.7271 38.1352L57.0216 43.1738L52.7815 40.5382Z" fill="#0033CC" fill-opacity="0.2"/>
<path d="M58.7937 28.3565L57.7354 21.4091L62.7062 21.0431L63.6538 27.222L58.7937 28.3565Z" fill="#0033CC" fill-opacity="0.2"/>
<path d="M54.4306 15.4922L48.7704 11.3283L52.0264 7.55191L57.0663 11.252L54.4306 15.4922Z" fill="#0033CC" fill-opacity="0.2"/>
<path d="M90.0422 57.8837C85.8338 56.8802 81.4222 57.1473 77.3656 58.6513C73.309 60.1553 69.7896 62.8287 67.2526 66.3332C64.7156 69.8377 63.2749 74.016 63.1129 78.3394C62.9509 82.6628 64.0747 86.9371 66.3423 90.6217C68.6099 94.3063 71.9194 97.2356 75.852 99.039C79.7847 100.842 84.1639 101.439 88.4356 100.753C92.7074 100.067 96.6798 98.1302 99.8503 95.1864C103.021 92.2427 105.247 88.4247 106.247 84.2155C107.582 78.5753 106.625 72.6361 103.588 67.7001C100.55 62.764 95.6787 59.2339 90.0422 57.8837ZM81.0061 95.9054C77.6923 95.1201 74.686 93.3697 72.3673 90.8754C70.0485 88.3812 68.5217 85.2553 67.9799 81.8932C67.4381 78.5311 67.9056 75.0837 69.3234 71.9874C70.7412 68.891 73.0455 66.2848 75.9448 64.4983C78.8441 62.7118 82.2082 61.8253 85.6113 61.9511C89.0145 62.0769 92.304 63.2092 95.0635 65.2048C97.823 67.2004 99.9287 69.9697 101.114 73.1622C102.299 76.3548 102.511 79.8272 101.723 83.1402C100.668 87.5798 97.8925 91.4185 94.0076 93.8124C90.1227 96.2062 85.446 96.959 81.0061 95.9054ZM90.0422 57.8837C85.8338 56.8802 81.4222 57.1473 77.3656 58.6513C73.309 60.1553 69.7896 62.8287 67.2526 66.3332C64.7156 69.8377 63.2749 74.016 63.1129 78.3394C62.9509 82.6628 64.0747 86.9371 66.3423 90.6217C68.6099 94.3063 71.9194 97.2356 75.852 99.039C79.7847 100.842 84.1639 101.439 88.4356 100.753C92.7074 100.067 96.6798 98.1302 99.8503 95.1864C103.021 92.2427 105.247 88.4247 106.247 84.2155C107.582 78.5753 106.625 72.6361 103.588 67.7001C100.55 62.764 95.6787 59.2339 90.0422 57.8837ZM81.0061 95.9054C77.6923 95.1201 74.686 93.3697 72.3673 90.8754C70.0485 88.3812 68.5217 85.2553 67.9799 81.8932C67.4381 78.5311 67.9056 75.0837 69.3234 71.9874C70.7412 68.891 73.0455 66.2848 75.9448 64.4983C78.8441 62.7118 82.2082 61.8253 85.6113 61.9511C89.0145 62.0769 92.304 63.2092 95.0635 65.2048C97.823 67.2004 99.9287 69.9697 101.114 73.1622C102.299 76.3548 102.511 79.8272 101.723 83.1402C100.668 87.5798 97.8925 91.4185 94.0076 93.8124C90.1227 96.2062 85.446 96.959 81.0061 95.9054ZM93.5102 43.2914C86.4169 41.6034 78.9824 42.0567 72.1468 44.5941C65.3112 47.1315 59.3816 51.6389 55.1078 57.5464C50.834 63.4539 48.4081 70.496 48.1367 77.7823C47.8653 85.0686 49.7608 92.2717 53.5833 98.4807C57.4058 104.69 62.9838 109.626 69.6117 112.665C76.2396 115.703 83.6198 116.708 90.819 115.553C98.0181 114.397 104.713 111.132 110.057 106.172C115.4 101.211 119.153 94.777 120.84 87.6835C123.1 78.1727 121.491 68.1537 116.366 59.8291C111.241 51.5046 103.02 45.5561 93.5102 43.2914ZM79.4442 102.477C74.8302 101.384 70.644 98.9471 67.4153 95.4744C64.1866 92.0017 62.0604 87.6494 61.3057 82.968C60.551 78.2867 61.2017 73.4867 63.1755 69.1753C65.1493 64.8639 68.3576 61.2347 72.3943 58.7469C76.4311 56.2592 81.115 55.0246 85.8535 55.1993C90.5921 55.3741 95.1724 56.9503 99.0149 59.7287C102.857 62.507 105.79 66.3626 107.441 70.8077C109.091 75.2528 109.387 80.0877 108.289 84.7008C106.812 90.8777 102.947 96.2172 97.5399 99.5493C92.1331 102.881 85.6259 103.934 79.4442 102.477ZM90.0422 57.8837C85.8338 56.8802 81.4222 57.1473 77.3656 58.6513C73.309 60.1553 69.7896 62.8287 67.2526 66.3332C64.7156 69.8377 63.2749 74.016 63.1129 78.3394C62.9509 82.6628 64.0747 86.9371 66.3423 90.6217C68.6099 94.3063 71.9194 97.2356 75.852 99.039C79.7847 100.842 84.1639 101.439 88.4356 100.753C92.7074 100.067 96.6798 98.1302 99.8503 95.1864C103.021 92.2427 105.247 88.4247 106.247 84.2155C107.582 78.5753 106.625 72.6361 103.588 67.7001C100.55 62.764 95.6787 59.2339 90.0422 57.8837ZM81.0061 95.9054C77.6923 95.1201 74.686 93.3697 72.3673 90.8754C70.0485 88.3812 68.5217 85.2553 67.9799 81.8932C67.4381 78.5311 67.9056 75.0837 69.3234 71.9874C70.7412 68.891 73.0455 66.2848 75.9448 64.4983C78.8441 62.7118 82.2082 61.8253 85.6113 61.9511C89.0145 62.0769 92.304 63.2092 95.0635 65.2048C97.823 67.2004 99.9287 69.9697 101.114 73.1622C102.299 76.3548 102.511 79.8272 101.723 83.1402C100.668 87.5798 97.8925 91.4185 94.0076 93.8124C90.1227 96.2062 85.446 96.959 81.0061 95.9054Z" fill="#0033CC" fill-opacity="0.2"/>
<path d="M97.5692 44.9463L89.3583 42.9949L92.1239 34.989L98.7013 36.5522L97.5692 44.9463Z" fill="#0033CC" fill-opacity="0.2"/>
<path d="M78.7734 43.2348L70.6867 45.6502L69.0832 37.3423L75.5601 35.4071L78.7734 43.2348Z" fill="#0033CC" fill-opacity="0.2"/>
<path d="M61.6478 51.1582L55.8524 57.2935L50.3032 50.8953L54.9455 45.9815L61.6478 51.1582Z" fill="#0033CC" fill-opacity="0.2"/>
<path d="M50.7742 66.5794L48.8228 74.7903L40.8169 72.0248L42.3801 65.4473L50.7742 66.5794Z" fill="#0033CC" fill-opacity="0.2"/>
<path d="M49.0643 85.3686L51.4797 93.4553L43.1705 95.0643L41.2353 88.5874L49.0643 85.3686Z" fill="#0033CC" fill-opacity="0.2"/>
<path d="M56.9805 102.5L63.1213 108.297L56.7231 113.846L51.8093 109.204L56.9805 102.5Z" fill="#0033CC" fill-opacity="0.2"/>
<path d="M72.4077 113.373L80.6186 115.324L77.8531 123.33L71.2757 121.767L72.4077 113.373Z" fill="#0033CC" fill-opacity="0.2"/>
<path d="M91.1991 115.079L99.2858 112.663L100.894 120.978L94.4166 122.913L91.1991 115.079Z" fill="#0033CC" fill-opacity="0.2"/>
<path d="M108.33 107.162L114.125 101.026L119.669 107.423L115.032 112.338L108.33 107.162Z" fill="#0033CC" fill-opacity="0.2"/>
<path d="M119.202 91.7401L121.154 83.5292L129.154 86.2934L127.591 92.8708L119.202 91.7401Z" fill="#0033CC" fill-opacity="0.2"/>
<path d="M120.908 72.9443L118.492 64.8575L126.806 63.2553L128.741 69.7322L120.908 72.9443Z" fill="#0033CC" fill-opacity="0.2"/>
<path d="M112.99 55.8185L106.854 50.0231L113.253 44.4739L118.166 49.1162L112.99 55.8185Z" fill="#0033CC" fill-opacity="0.2"/>
<path d="M180.029 87.3108C178.756 82.8623 176.193 78.8909 172.664 75.8987C169.135 72.9064 164.797 71.0277 160.201 70.5001C155.604 69.9724 150.954 70.8194 146.838 72.9341C142.723 75.0487 139.326 78.336 137.079 82.3805C134.831 86.425 133.833 91.045 134.211 95.6566C134.589 100.268 136.325 104.664 139.201 108.289C142.076 111.914 145.962 114.605 150.367 116.022C154.772 117.439 159.498 117.518 163.947 116.249C166.904 115.406 169.666 113.989 172.075 112.078C174.483 110.167 176.492 107.8 177.985 105.113C179.479 102.425 180.428 99.4696 180.779 96.4151C181.129 93.3605 180.874 90.2668 180.029 87.3108ZM147.028 96.7712C146.432 94.6942 146.466 92.4871 147.125 90.4292C147.783 88.3713 149.038 86.555 150.729 85.2099C152.42 83.8648 154.472 83.0515 156.625 82.8727C158.779 82.694 160.937 83.1578 162.826 84.2056C164.716 85.2533 166.253 86.838 167.242 88.7591C168.231 90.6802 168.628 92.8515 168.383 94.9983C168.138 97.1452 167.262 99.1712 165.866 100.82C164.469 102.469 162.615 103.667 160.538 104.262C157.753 105.06 154.765 104.719 152.232 103.314C149.698 101.909 147.827 99.5558 147.028 96.7712Z" fill="#0033CC" fill-opacity="0.2"/>
<path d="M180.329 91.9043L177.853 83.2509L184.115 81.9779L186.319 89.6694L180.329 91.9043Z" fill="#0033CC" fill-opacity="0.2"/>
<path d="M172.7 76.2731L164.833 71.9069L168.355 66.5772L175.353 70.4608L172.7 76.2731Z" fill="#0033CC" fill-opacity="0.2"/>
<path d="M156.252 70.6163L147.597 73.0981L146.324 66.836L154.016 64.6315L156.252 70.6163Z" fill="#0033CC" fill-opacity="0.2"/>
<path d="M140.621 78.2504L136.254 86.1175L130.925 82.5959L134.808 75.5978L140.621 78.2504Z" fill="#0033CC" fill-opacity="0.2"/>
<path d="M134.963 94.6974L137.446 103.347L131.183 104.625L128.98 96.9282L134.963 94.6974Z" fill="#0033CC" fill-opacity="0.2"/>
<path d="M142.598 110.329L150.467 114.69L146.945 120.02L139.946 116.142L142.598 110.329Z" fill="#0033CC" fill-opacity="0.2"/>
<path d="M159.045 115.988L167.7 113.506L168.973 119.768L161.276 121.971L159.045 115.988Z" fill="#0033CC" fill-opacity="0.2"/>
<path d="M174.677 108.352L179.043 100.485L184.368 104.005L180.489 111.005L174.677 108.352Z" fill="#0033CC" fill-opacity="0.2"/>
</svg>
