<svg width="416" height="370" viewBox="0 0 416 370" fill="none" xmlns="http://www.w3.org/2000/svg">
<circle cx="231" cy="185" r="183.5" stroke="#0033CC" stroke-width="3" stroke-dasharray="20 20"/>
<path d="M38.6603 169.259C35.0864 169.805 31.7547 171.398 29.0865 173.838C26.4183 176.277 24.5335 179.453 23.6703 182.964C22.8072 186.475 23.0046 190.163 24.2376 193.561C25.4705 196.96 27.6836 199.916 30.597 202.057C33.5104 204.198 36.9931 205.426 40.6048 205.588C44.2166 205.749 47.795 204.836 50.8875 202.963C53.9801 201.09 56.4479 198.343 57.9788 195.068C59.5097 191.792 60.035 188.137 59.4882 184.563C59.1259 182.19 58.2997 179.912 57.0569 177.859C55.814 175.806 54.1788 174.017 52.2446 172.596C50.3105 171.175 48.1153 170.149 45.7845 169.576C43.4536 169.004 41.0328 168.896 38.6603 169.259ZM42.7157 195.763C41.0465 196.019 39.339 195.774 37.8093 195.059C36.2796 194.344 34.9964 193.191 34.1221 191.746C33.2477 190.301 32.8216 188.63 32.8976 186.943C32.9735 185.256 33.5482 183.63 34.5488 182.269C35.5495 180.909 36.9311 179.876 38.5189 179.302C40.1067 178.727 41.8293 178.636 43.4687 179.041C45.1082 179.446 46.5907 180.327 47.7288 181.575C48.8668 182.822 49.6093 184.379 49.8621 186.049C50.2007 188.285 49.6383 190.563 48.2984 192.385C46.9586 194.206 44.9507 195.421 42.7157 195.763Z" fill="#0033CC" fill-opacity="0.2"/>
<path d="M42.2489 169.479L35.3003 170.543L34.9355 165.567L41.1145 164.619L42.2489 169.479Z" fill="#0033CC" fill-opacity="0.2"/>
<path d="M29.3859 173.843L25.2261 179.51L21.4456 176.247L25.1444 171.213L29.3859 173.843Z" fill="#0033CC" fill-opacity="0.2"/>
<path d="M23.3728 186.024L24.4365 192.973L19.4603 193.337L18.5182 187.16L23.3728 186.024Z" fill="#0033CC" fill-opacity="0.2"/>
<path d="M27.7366 198.888L33.4023 203.054L30.1409 206.829L25.1064 203.13L27.7366 198.888Z" fill="#0033CC" fill-opacity="0.2"/>
<path d="M39.9175 204.9L46.8662 203.837L47.2364 208.814L41.0574 209.762L39.9175 204.9Z" fill="#0033CC" fill-opacity="0.2"/>
<path d="M52.7815 200.538L56.9453 194.878L60.7271 198.135L57.0216 203.174L52.7815 200.538Z" fill="#0033CC" fill-opacity="0.2"/>
<path d="M58.7937 188.356L57.7354 181.409L62.7062 181.043L63.6538 187.222L58.7937 188.356Z" fill="#0033CC" fill-opacity="0.2"/>
<path d="M54.4306 175.492L48.7704 171.328L52.0264 167.552L57.0663 171.252L54.4306 175.492Z" fill="#0033CC" fill-opacity="0.2"/>
<path d="M90.0422 217.884C85.8338 216.88 81.4222 217.147 77.3656 218.651C73.309 220.155 69.7896 222.829 67.2526 226.333C64.7156 229.838 63.2749 234.016 63.1129 238.339C62.9509 242.663 64.0747 246.937 66.3423 250.622C68.6099 254.306 71.9194 257.236 75.852 259.039C79.7847 260.842 84.1639 261.439 88.4356 260.753C92.7074 260.067 96.6798 258.13 99.8503 255.186C103.021 252.243 105.247 248.425 106.247 244.215C107.582 238.575 106.625 232.636 103.588 227.7C100.55 222.764 95.6787 219.234 90.0422 217.884ZM81.0061 255.905C77.6923 255.12 74.686 253.37 72.3673 250.875C70.0485 248.381 68.5217 245.255 67.9799 241.893C67.4381 238.531 67.9056 235.084 69.3234 231.987C70.7412 228.891 73.0455 226.285 75.9448 224.498C78.8441 222.712 82.2082 221.825 85.6113 221.951C89.0145 222.077 92.304 223.209 95.0635 225.205C97.823 227.2 99.9287 229.97 101.114 233.162C102.299 236.355 102.511 239.827 101.723 243.14C100.668 247.58 97.8925 251.419 94.0076 253.812C90.1227 256.206 85.446 256.959 81.0061 255.905ZM90.0422 217.884C85.8338 216.88 81.4222 217.147 77.3656 218.651C73.309 220.155 69.7896 222.829 67.2526 226.333C64.7156 229.838 63.2749 234.016 63.1129 238.339C62.9509 242.663 64.0747 246.937 66.3423 250.622C68.6099 254.306 71.9194 257.236 75.852 259.039C79.7847 260.842 84.1639 261.439 88.4356 260.753C92.7074 260.067 96.6798 258.13 99.8503 255.186C103.021 252.243 105.247 248.425 106.247 244.215C107.582 238.575 106.625 232.636 103.588 227.7C100.55 222.764 95.6787 219.234 90.0422 217.884ZM81.0061 255.905C77.6923 255.12 74.686 253.37 72.3673 250.875C70.0485 248.381 68.5217 245.255 67.9799 241.893C67.4381 238.531 67.9056 235.084 69.3234 231.987C70.7412 228.891 73.0455 226.285 75.9448 224.498C78.8441 222.712 82.2082 221.825 85.6113 221.951C89.0145 222.077 92.304 223.209 95.0635 225.205C97.823 227.2 99.9287 229.97 101.114 233.162C102.299 236.355 102.511 239.827 101.723 243.14C100.668 247.58 97.8925 251.419 94.0076 253.812C90.1227 256.206 85.446 256.959 81.0061 255.905ZM93.5102 203.291C86.4169 201.603 78.9824 202.057 72.1468 204.594C65.3112 207.131 59.3816 211.639 55.1078 217.546C50.834 223.454 48.4081 230.496 48.1367 237.782C47.8653 245.069 49.7608 252.272 53.5833 258.481C57.4058 264.69 62.9838 269.626 69.6117 272.665C76.2396 275.703 83.6198 276.708 90.819 275.553C98.0181 274.397 104.713 271.132 110.057 266.172C115.4 261.211 119.153 254.777 120.84 247.683C123.1 238.173 121.491 228.154 116.366 219.829C111.241 211.505 103.02 205.556 93.5102 203.291ZM79.4442 262.477C74.8302 261.384 70.644 258.947 67.4153 255.474C64.1866 252.002 62.0604 247.649 61.3057 242.968C60.551 238.287 61.2017 233.487 63.1755 229.175C65.1493 224.864 68.3576 221.235 72.3943 218.747C76.4311 216.259 81.115 215.025 85.8535 215.199C90.5921 215.374 95.1724 216.95 99.0149 219.729C102.857 222.507 105.79 226.363 107.441 230.808C109.091 235.253 109.387 240.088 108.289 244.701C106.812 250.878 102.947 256.217 97.5399 259.549C92.1331 262.881 85.6259 263.934 79.4442 262.477ZM90.0422 217.884C85.8338 216.88 81.4222 217.147 77.3656 218.651C73.309 220.155 69.7896 222.829 67.2526 226.333C64.7156 229.838 63.2749 234.016 63.1129 238.339C62.9509 242.663 64.0747 246.937 66.3423 250.622C68.6099 254.306 71.9194 257.236 75.852 259.039C79.7847 260.842 84.1639 261.439 88.4356 260.753C92.7074 260.067 96.6798 258.13 99.8503 255.186C103.021 252.243 105.247 248.425 106.247 244.215C107.582 238.575 106.625 232.636 103.588 227.7C100.55 222.764 95.6787 219.234 90.0422 217.884ZM81.0061 255.905C77.6923 255.12 74.686 253.37 72.3673 250.875C70.0485 248.381 68.5217 245.255 67.9799 241.893C67.4381 238.531 67.9056 235.084 69.3234 231.987C70.7412 228.891 73.0455 226.285 75.9448 224.498C78.8441 222.712 82.2082 221.825 85.6113 221.951C89.0145 222.077 92.304 223.209 95.0635 225.205C97.823 227.2 99.9287 229.97 101.114 233.162C102.299 236.355 102.511 239.827 101.723 243.14C100.668 247.58 97.8925 251.419 94.0076 253.812C90.1227 256.206 85.446 256.959 81.0061 255.905Z" fill="#0033CC" fill-opacity="0.2"/>
<path d="M97.5692 204.946L89.3583 202.995L92.1239 194.989L98.7013 196.552L97.5692 204.946Z" fill="#0033CC" fill-opacity="0.2"/>
<path d="M78.7734 203.235L70.6867 205.65L69.0832 197.342L75.5601 195.407L78.7734 203.235Z" fill="#0033CC" fill-opacity="0.2"/>
<path d="M61.6478 211.158L55.8524 217.293L50.3032 210.895L54.9455 205.982L61.6478 211.158Z" fill="#0033CC" fill-opacity="0.2"/>
<path d="M50.7742 226.579L48.8228 234.79L40.8169 232.025L42.3801 225.447L50.7742 226.579Z" fill="#0033CC" fill-opacity="0.2"/>
<path d="M49.0643 245.369L51.4797 253.455L43.1705 255.064L41.2353 248.587L49.0643 245.369Z" fill="#0033CC" fill-opacity="0.2"/>
<path d="M56.9805 262.5L63.1213 268.297L56.7231 273.846L51.8093 269.204L56.9805 262.5Z" fill="#0033CC" fill-opacity="0.2"/>
<path d="M72.4077 273.373L80.6186 275.324L77.8531 283.33L71.2757 281.767L72.4077 273.373Z" fill="#0033CC" fill-opacity="0.2"/>
<path d="M91.1991 275.079L99.2858 272.663L100.894 280.978L94.4166 282.913L91.1991 275.079Z" fill="#0033CC" fill-opacity="0.2"/>
<path d="M108.33 267.162L114.125 261.026L119.669 267.423L115.032 272.338L108.33 267.162Z" fill="#0033CC" fill-opacity="0.2"/>
<path d="M119.202 251.74L121.154 243.529L129.154 246.293L127.591 252.871L119.202 251.74Z" fill="#0033CC" fill-opacity="0.2"/>
<path d="M120.908 232.944L118.492 224.858L126.806 223.255L128.741 229.732L120.908 232.944Z" fill="#0033CC" fill-opacity="0.2"/>
<path d="M112.99 215.819L106.854 210.023L113.253 204.474L118.166 209.116L112.99 215.819Z" fill="#0033CC" fill-opacity="0.2"/>
<path d="M180.029 247.311C178.756 242.862 176.193 238.891 172.664 235.899C169.135 232.906 164.797 231.028 160.201 230.5C155.604 229.972 150.954 230.819 146.838 232.934C142.723 235.049 139.326 238.336 137.079 242.381C134.831 246.425 133.833 251.045 134.211 255.657C134.589 260.268 136.325 264.664 139.201 268.289C142.076 271.914 145.962 274.605 150.367 276.022C154.772 277.439 159.498 277.518 163.947 276.249C166.904 275.406 169.666 273.989 172.075 272.078C174.483 270.167 176.492 267.8 177.985 265.113C179.479 262.425 180.428 259.47 180.779 256.415C181.129 253.361 180.874 250.267 180.029 247.311ZM147.028 256.771C146.432 254.694 146.466 252.487 147.125 250.429C147.783 248.371 149.038 246.555 150.729 245.21C152.42 243.865 154.472 243.052 156.625 242.873C158.779 242.694 160.937 243.158 162.826 244.206C164.716 245.253 166.253 246.838 167.242 248.759C168.231 250.68 168.628 252.851 168.383 254.998C168.138 257.145 167.262 259.171 165.866 260.82C164.469 262.469 162.615 263.667 160.538 264.262C157.753 265.06 154.765 264.719 152.232 263.314C149.698 261.909 147.827 259.556 147.028 256.771Z" fill="#0033CC" fill-opacity="0.2"/>
<path d="M180.329 251.904L177.853 243.251L184.115 241.978L186.319 249.669L180.329 251.904Z" fill="#0033CC" fill-opacity="0.2"/>
<path d="M172.7 236.273L164.833 231.907L168.355 226.577L175.353 230.461L172.7 236.273Z" fill="#0033CC" fill-opacity="0.2"/>
<path d="M156.252 230.616L147.597 233.098L146.324 226.836L154.016 224.632L156.252 230.616Z" fill="#0033CC" fill-opacity="0.2"/>
<path d="M140.621 238.25L136.254 246.117L130.925 242.596L134.808 235.598L140.621 238.25Z" fill="#0033CC" fill-opacity="0.2"/>
<path d="M134.963 254.697L137.446 263.347L131.183 264.625L128.98 256.928L134.963 254.697Z" fill="#0033CC" fill-opacity="0.2"/>
<path d="M142.598 270.329L150.467 274.69L146.945 280.02L139.946 276.142L142.598 270.329Z" fill="#0033CC" fill-opacity="0.2"/>
<path d="M159.045 275.988L167.7 273.506L168.973 279.768L161.276 281.971L159.045 275.988Z" fill="#0033CC" fill-opacity="0.2"/>
<path d="M174.677 268.352L179.043 260.485L184.368 264.005L180.489 271.005L174.677 268.352Z" fill="#0033CC" fill-opacity="0.2"/>
</svg>
