<svg width="199" height="66" viewBox="0 0 199 66" fill="none" xmlns="http://www.w3.org/2000/svg">
<path d="M40.8 14.45L35.2 28H30.3L24.725 14.45H29.6L32.85 22.725L36.275 14.45H40.8ZM52.8029 16.075C53.2863 15.4583 53.9113 15 54.6779 14.7C55.4613 14.3833 56.3529 14.225 57.3529 14.225V18.5C56.9196 18.45 56.5613 18.425 56.2779 18.425C55.2613 18.425 54.4613 18.7 53.8779 19.25C53.3113 19.8 53.0279 20.6417 53.0279 21.775V28H48.2779V14.45H52.8029V16.075ZM72.691 24.6C73.341 24.6 73.8993 24.5083 74.366 24.325C74.8493 24.1417 75.3327 23.8417 75.816 23.425L78.291 26.025C77.0077 27.4917 75.091 28.225 72.541 28.225C70.9577 28.225 69.566 27.925 68.366 27.325C67.166 26.725 66.2327 25.8917 65.566 24.825C64.916 23.7583 64.591 22.55 64.591 21.2C64.591 19.8667 64.916 18.675 65.566 17.625C66.216 16.5583 67.1077 15.725 68.241 15.125C69.391 14.525 70.6743 14.225 72.091 14.225C73.4077 14.225 74.6077 14.5 75.691 15.05C76.791 15.5833 77.666 16.375 78.316 17.425C78.966 18.4583 79.291 19.6917 79.291 21.125L69.616 22.975C70.1327 24.0583 71.1577 24.6 72.691 24.6ZM72.116 17.6C71.2993 17.6 70.6327 17.8583 70.116 18.375C69.5993 18.875 69.3077 19.6 69.241 20.55L74.741 19.475C74.5743 18.9083 74.2577 18.4583 73.791 18.125C73.3243 17.775 72.766 17.6 72.116 17.6ZM114.361 21.65C114.361 20.8 114.352 20.2333 114.336 19.95C114.319 19.55 114.269 19.25 114.186 19.05C114.102 18.8333 113.969 18.7 113.786 18.65C113.586 18.6 113.311 18.575 112.961 18.575H112.611V15.05H112.961C114.411 15.05 115.544 15.1667 116.361 15.4C117.177 15.6167 117.786 15.9833 118.186 16.5C118.552 16.9667 118.786 17.5917 118.886 18.375C119.002 19.1417 119.061 20.2333 119.061 21.65C119.061 22.9667 119.019 23.9917 118.936 24.725C118.869 25.4417 118.694 26.0333 118.411 26.5C118.094 27.0167 117.619 27.4083 116.986 27.675C116.352 27.925 115.477 28.0833 114.361 28.15V21.65ZM112.961 28.2C111.511 28.2 110.377 28.0917 109.561 27.875C108.744 27.6583 108.136 27.2917 107.736 26.775C107.369 26.3083 107.127 25.6917 107.011 24.925C106.911 24.1583 106.861 23.0667 106.861 21.65C106.861 20.35 106.902 19.3333 106.986 18.6C107.069 17.8667 107.252 17.2583 107.536 16.775C107.836 16.2417 108.302 15.85 108.936 15.6C109.569 15.3333 110.444 15.1667 111.561 15.1V21.65C111.561 22.5 111.569 23.0583 111.586 23.325C111.602 23.725 111.652 24.025 111.736 24.225C111.819 24.425 111.961 24.55 112.161 24.6C112.327 24.65 112.594 24.675 112.961 24.675H113.311V28.2H112.961ZM127.792 9.425H132.417V28H127.792V9.425ZM140.338 15.25H145.063L148.488 28H144.063L140.338 15.25ZM147.763 21.25L149.063 15.25H153.613L149.888 28H149.588L147.763 21.25ZM166.563 20.375H168.313C168.313 19.4417 168.222 18.8417 168.038 18.575C167.938 18.425 167.805 18.3333 167.638 18.3C167.472 18.25 167.23 18.225 166.913 18.225H166.563V15.05H166.913C168.347 15.05 169.447 15.1667 170.213 15.4C170.997 15.6333 171.572 16.0167 171.938 16.55C172.272 17.0167 172.472 17.6167 172.538 18.35C172.622 19.0833 172.663 20.1833 172.663 21.65V22.65H166.563V20.375ZM167.413 28.2C165.88 28.2 164.672 28.075 163.788 27.825C162.922 27.5583 162.272 27.1417 161.838 26.575C161.455 26.075 161.205 25.4583 161.088 24.725C160.972 23.975 160.913 22.95 160.913 21.65C160.913 20.45 160.955 19.5 161.038 18.8C161.122 18.0833 161.297 17.475 161.563 16.975C161.863 16.425 162.322 16 162.938 15.7C163.572 15.3833 164.43 15.1833 165.513 15.1V22.65C165.513 23.2167 165.538 23.625 165.588 23.875C165.638 24.1083 165.755 24.2833 165.938 24.4C166.138 24.5333 166.447 24.6083 166.863 24.625C167.397 24.6583 167.963 24.675 168.563 24.675C169.63 24.675 170.405 24.65 170.888 24.6L172.163 24.5V27.725C171.497 27.925 170.58 28.0583 169.413 28.125C168.847 28.175 168.18 28.2 167.413 28.2Z" fill="#0033CC"/>
<path d="M87.3311 24.675L92.6311 18.775H87.6311V15.25H98.3811V18.575L89.9311 28H87.3311V24.675ZM94.4811 24.475H98.4311V28H91.3311L94.4811 24.475Z" fill="#FF6600"/>
<path d="M27.128 50V41.6H30.584C31.328 41.6 31.964 41.72 32.492 41.96C33.028 42.2 33.44 42.544 33.728 42.992C34.016 43.44 34.16 43.972 34.16 44.588C34.16 45.204 34.016 45.736 33.728 46.184C33.44 46.624 33.028 46.964 32.492 47.204C31.964 47.436 31.328 47.552 30.584 47.552H27.992L28.688 46.844V50H27.128ZM32.624 50L30.5 46.952H32.168L34.304 50H32.624ZM28.688 47.012L27.992 46.268H30.512C31.2 46.268 31.716 46.12 32.06 45.824C32.412 45.528 32.588 45.116 32.588 44.588C32.588 44.052 32.412 43.64 32.06 43.352C31.716 43.064 31.2 42.92 30.512 42.92H27.992L28.688 42.152V47.012ZM38.7733 50.084C38.0613 50.084 37.4373 49.944 36.9013 49.664C36.3733 49.376 35.9613 48.984 35.6653 48.488C35.3773 47.992 35.2333 47.428 35.2333 46.796C35.2333 46.156 35.3733 45.592 35.6533 45.104C35.9413 44.608 36.3333 44.22 36.8293 43.94C37.3333 43.66 37.9053 43.52 38.5453 43.52C39.1693 43.52 39.7253 43.656 40.2133 43.928C40.7013 44.2 41.0853 44.584 41.3653 45.08C41.6453 45.576 41.7853 46.16 41.7853 46.832C41.7853 46.896 41.7813 46.968 41.7733 47.048C41.7733 47.128 41.7693 47.204 41.7613 47.276H36.4213V46.28H40.9693L40.3813 46.592C40.3893 46.224 40.3133 45.9 40.1533 45.62C39.9933 45.34 39.7733 45.12 39.4933 44.96C39.2213 44.8 38.9053 44.72 38.5453 44.72C38.1773 44.72 37.8533 44.8 37.5733 44.96C37.3013 45.12 37.0853 45.344 36.9253 45.632C36.7733 45.912 36.6973 46.244 36.6973 46.628V46.868C36.6973 47.252 36.7853 47.592 36.9613 47.888C37.1373 48.184 37.3853 48.412 37.7053 48.572C38.0253 48.732 38.3933 48.812 38.8093 48.812C39.1693 48.812 39.4933 48.756 39.7813 48.644C40.0693 48.532 40.3253 48.356 40.5493 48.116L41.3533 49.04C41.0653 49.376 40.7013 49.636 40.2613 49.82C39.8293 49.996 39.3333 50.084 38.7733 50.084ZM45.2062 50.084C44.6702 50.084 44.1542 50.016 43.6582 49.88C43.1702 49.736 42.7822 49.564 42.4942 49.364L43.0702 48.224C43.3582 48.408 43.7022 48.56 44.1022 48.68C44.5022 48.8 44.9022 48.86 45.3022 48.86C45.7742 48.86 46.1142 48.796 46.3222 48.668C46.5382 48.54 46.6462 48.368 46.6462 48.152C46.6462 47.976 46.5742 47.844 46.4302 47.756C46.2862 47.66 46.0982 47.588 45.8662 47.54C45.6342 47.492 45.3742 47.448 45.0862 47.408C44.8062 47.368 44.5222 47.316 44.2342 47.252C43.9542 47.18 43.6982 47.08 43.4662 46.952C43.2342 46.816 43.0462 46.636 42.9022 46.412C42.7582 46.188 42.6862 45.892 42.6862 45.524C42.6862 45.116 42.8022 44.764 43.0342 44.468C43.2662 44.164 43.5902 43.932 44.0062 43.772C44.4302 43.604 44.9302 43.52 45.5062 43.52C45.9382 43.52 46.3742 43.568 46.8142 43.664C47.2542 43.76 47.6182 43.896 47.9062 44.072L47.3302 45.212C47.0262 45.028 46.7182 44.904 46.4062 44.84C46.1022 44.768 45.7982 44.732 45.4942 44.732C45.0382 44.732 44.6982 44.8 44.4742 44.936C44.2582 45.072 44.1502 45.244 44.1502 45.452C44.1502 45.644 44.2222 45.788 44.3662 45.884C44.5102 45.98 44.6982 46.056 44.9302 46.112C45.1622 46.168 45.4182 46.216 45.6982 46.256C45.9862 46.288 46.2702 46.34 46.5502 46.412C46.8302 46.484 47.0862 46.584 47.3182 46.712C47.5582 46.832 47.7502 47.004 47.8942 47.228C48.0382 47.452 48.1102 47.744 48.1102 48.104C48.1102 48.504 47.9902 48.852 47.7502 49.148C47.5182 49.444 47.1862 49.676 46.7542 49.844C46.3222 50.004 45.8062 50.084 45.2062 50.084ZM52.282 50.084C51.626 50.084 51.042 49.944 50.53 49.664C50.018 49.376 49.614 48.984 49.318 48.488C49.022 47.992 48.874 47.428 48.874 46.796C48.874 46.156 49.022 45.592 49.318 45.104C49.614 44.608 50.018 44.22 50.53 43.94C51.042 43.66 51.626 43.52 52.282 43.52C52.946 43.52 53.534 43.66 54.046 43.94C54.566 44.22 54.97 44.604 55.258 45.092C55.554 45.58 55.702 46.148 55.702 46.796C55.702 47.428 55.554 47.992 55.258 48.488C54.97 48.984 54.566 49.376 54.046 49.664C53.534 49.944 52.946 50.084 52.282 50.084ZM52.282 48.8C52.65 48.8 52.978 48.72 53.266 48.56C53.554 48.4 53.778 48.168 53.938 47.864C54.106 47.56 54.19 47.204 54.19 46.796C54.19 46.38 54.106 46.024 53.938 45.728C53.778 45.424 53.554 45.192 53.266 45.032C52.978 44.872 52.654 44.792 52.294 44.792C51.926 44.792 51.598 44.872 51.31 45.032C51.03 45.192 50.806 45.424 50.638 45.728C50.47 46.024 50.386 46.38 50.386 46.796C50.386 47.204 50.47 47.56 50.638 47.864C50.806 48.168 51.03 48.4 51.31 48.56C51.598 48.72 51.922 48.8 52.282 48.8ZM57.1363 50V41.096H58.6363V50H57.1363ZM62.3091 50L59.5611 43.592H61.1211L63.4851 49.244H62.7171L65.1651 43.592H66.6051L63.8571 50H62.3091ZM70.3788 50.084C69.6668 50.084 69.0428 49.944 68.5068 49.664C67.9788 49.376 67.5668 48.984 67.2708 48.488C66.9828 47.992 66.8388 47.428 66.8388 46.796C66.8388 46.156 66.9788 45.592 67.2588 45.104C67.5468 44.608 67.9388 44.22 68.4348 43.94C68.9388 43.66 69.5108 43.52 70.1508 43.52C70.7748 43.52 71.3308 43.656 71.8188 43.928C72.3068 44.2 72.6908 44.584 72.9708 45.08C73.2508 45.576 73.3908 46.16 73.3908 46.832C73.3908 46.896 73.3868 46.968 73.3788 47.048C73.3788 47.128 73.3748 47.204 73.3668 47.276H68.0268V46.28H72.5748L71.9868 46.592C71.9948 46.224 71.9188 45.9 71.7588 45.62C71.5988 45.34 71.3788 45.12 71.0988 44.96C70.8268 44.8 70.5108 44.72 70.1508 44.72C69.7828 44.72 69.4588 44.8 69.1788 44.96C68.9068 45.12 68.6908 45.344 68.5308 45.632C68.3788 45.912 68.3028 46.244 68.3028 46.628V46.868C68.3028 47.252 68.3908 47.592 68.5668 47.888C68.7428 48.184 68.9908 48.412 69.3108 48.572C69.6308 48.732 69.9988 48.812 70.4148 48.812C70.7748 48.812 71.0988 48.756 71.3868 48.644C71.6748 48.532 71.9308 48.356 72.1548 48.116L72.9588 49.04C72.6708 49.376 72.3068 49.636 71.8668 49.82C71.4348 49.996 70.9388 50.084 70.3788 50.084ZM79.9961 50V42.92H77.2121V41.6H84.3401V42.92H81.5561V50H79.9961ZM87.7226 50.084C87.0106 50.084 86.3866 49.944 85.8506 49.664C85.3226 49.376 84.9106 48.984 84.6146 48.488C84.3266 47.992 84.1826 47.428 84.1826 46.796C84.1826 46.156 84.3226 45.592 84.6026 45.104C84.8906 44.608 85.2826 44.22 85.7786 43.94C86.2826 43.66 86.8546 43.52 87.4946 43.52C88.1186 43.52 88.6746 43.656 89.1626 43.928C89.6506 44.2 90.0346 44.584 90.3146 45.08C90.5946 45.576 90.7346 46.16 90.7346 46.832C90.7346 46.896 90.7306 46.968 90.7226 47.048C90.7226 47.128 90.7186 47.204 90.7106 47.276H85.3706V46.28H89.9186L89.3306 46.592C89.3386 46.224 89.2626 45.9 89.1026 45.62C88.9426 45.34 88.7226 45.12 88.4426 44.96C88.1706 44.8 87.8546 44.72 87.4946 44.72C87.1266 44.72 86.8026 44.8 86.5226 44.96C86.2506 45.12 86.0346 45.344 85.8746 45.632C85.7226 45.912 85.6466 46.244 85.6466 46.628V46.868C85.6466 47.252 85.7346 47.592 85.9106 47.888C86.0866 48.184 86.3346 48.412 86.6546 48.572C86.9746 48.732 87.3426 48.812 87.7586 48.812C88.1186 48.812 88.4426 48.756 88.7306 48.644C89.0186 48.532 89.2746 48.356 89.4986 48.116L90.3026 49.04C90.0146 49.376 89.6506 49.636 89.2106 49.82C88.7786 49.996 88.2826 50.084 87.7226 50.084ZM95.1154 50.084C94.4434 50.084 93.8434 49.944 93.3154 49.664C92.7954 49.376 92.3874 48.984 92.0914 48.488C91.7954 47.992 91.6474 47.428 91.6474 46.796C91.6474 46.156 91.7954 45.592 92.0914 45.104C92.3874 44.608 92.7954 44.22 93.3154 43.94C93.8434 43.66 94.4434 43.52 95.1154 43.52C95.7394 43.52 96.2874 43.648 96.7594 43.904C97.2394 44.152 97.6034 44.52 97.8514 45.008L96.6994 45.68C96.5074 45.376 96.2714 45.152 95.9914 45.008C95.7194 44.864 95.4234 44.792 95.1034 44.792C94.7354 44.792 94.4034 44.872 94.1074 45.032C93.8114 45.192 93.5794 45.424 93.4114 45.728C93.2434 46.024 93.1594 46.38 93.1594 46.796C93.1594 47.212 93.2434 47.572 93.4114 47.876C93.5794 48.172 93.8114 48.4 94.1074 48.56C94.4034 48.72 94.7354 48.8 95.1034 48.8C95.4234 48.8 95.7194 48.728 95.9914 48.584C96.2714 48.44 96.5074 48.216 96.6994 47.912L97.8514 48.584C97.6034 49.064 97.2394 49.436 96.7594 49.7C96.2874 49.956 95.7394 50.084 95.1154 50.084ZM102.725 43.52C103.237 43.52 103.693 43.62 104.093 43.82C104.501 44.02 104.821 44.328 105.053 44.744C105.285 45.152 105.401 45.68 105.401 46.328V50H103.901V46.52C103.901 45.952 103.765 45.528 103.493 45.248C103.229 44.968 102.857 44.828 102.377 44.828C102.025 44.828 101.713 44.9 101.441 45.044C101.169 45.188 100.957 45.404 100.805 45.692C100.661 45.972 100.589 46.328 100.589 46.76V50H99.0895V41.096H100.589V45.32L100.265 44.792C100.489 44.384 100.813 44.072 101.237 43.856C101.669 43.632 102.165 43.52 102.725 43.52ZM110.765 50V41.6H114.221C114.965 41.6 115.601 41.72 116.129 41.96C116.665 42.2 117.077 42.544 117.365 42.992C117.653 43.44 117.797 43.972 117.797 44.588C117.797 45.204 117.653 45.736 117.365 46.184C117.077 46.632 116.665 46.976 116.129 47.216C115.601 47.456 114.965 47.576 114.221 47.576H111.629L112.325 46.844V50H110.765ZM112.325 47.012L111.629 46.256H114.149C114.837 46.256 115.353 46.112 115.697 45.824C116.049 45.528 116.225 45.116 116.225 44.588C116.225 44.052 116.049 43.64 115.697 43.352C115.353 43.064 114.837 42.92 114.149 42.92H111.629L112.325 42.152V47.012ZM123.1 50V48.704L123.016 48.428V46.16C123.016 45.72 122.884 45.38 122.62 45.14C122.356 44.892 121.956 44.768 121.42 44.768C121.06 44.768 120.704 44.824 120.352 44.936C120.008 45.048 119.716 45.204 119.476 45.404L118.888 44.312C119.232 44.048 119.64 43.852 120.112 43.724C120.592 43.588 121.088 43.52 121.6 43.52C122.528 43.52 123.244 43.744 123.748 44.192C124.26 44.632 124.516 45.316 124.516 46.244V50H123.1ZM121.084 50.084C120.604 50.084 120.184 50.004 119.824 49.844C119.464 49.676 119.184 49.448 118.984 49.16C118.792 48.864 118.696 48.532 118.696 48.164C118.696 47.804 118.78 47.48 118.948 47.192C119.124 46.904 119.408 46.676 119.8 46.508C120.192 46.34 120.712 46.256 121.36 46.256H123.22V47.252H121.468C120.956 47.252 120.612 47.336 120.436 47.504C120.26 47.664 120.172 47.864 120.172 48.104C120.172 48.376 120.28 48.592 120.496 48.752C120.712 48.912 121.012 48.992 121.396 48.992C121.764 48.992 122.092 48.908 122.38 48.74C122.676 48.572 122.888 48.324 123.016 47.996L123.268 48.896C123.124 49.272 122.864 49.564 122.488 49.772C122.12 49.98 121.652 50.084 121.084 50.084ZM126.852 52.412C126.54 52.412 126.228 52.36 125.916 52.256C125.604 52.152 125.344 52.008 125.136 51.824L125.736 50.72C125.888 50.856 126.06 50.964 126.252 51.044C126.444 51.124 126.64 51.164 126.84 51.164C127.112 51.164 127.332 51.096 127.5 50.96C127.668 50.824 127.824 50.596 127.968 50.276L128.34 49.436L128.46 49.256L130.884 43.592H132.324L129.324 50.516C129.124 50.996 128.9 51.376 128.652 51.656C128.412 51.936 128.14 52.132 127.836 52.244C127.54 52.356 127.212 52.412 126.852 52.412ZM128.172 50.228L125.28 43.592H126.84L129.192 49.124L128.172 50.228ZM141.349 43.52C141.861 43.52 142.313 43.62 142.705 43.82C143.105 44.02 143.417 44.328 143.641 44.744C143.865 45.152 143.977 45.68 143.977 46.328V50H142.477V46.52C142.477 45.952 142.353 45.528 142.105 45.248C141.857 44.968 141.501 44.828 141.037 44.828C140.709 44.828 140.417 44.9 140.161 45.044C139.913 45.188 139.717 45.4 139.573 45.68C139.437 45.96 139.369 46.316 139.369 46.748V50H137.869V46.52C137.869 45.952 137.745 45.528 137.497 45.248C137.249 44.968 136.893 44.828 136.429 44.828C136.101 44.828 135.809 44.9 135.553 45.044C135.305 45.188 135.109 45.4 134.965 45.68C134.829 45.96 134.761 46.316 134.761 46.748V50H133.261V43.592H134.689V45.296L134.437 44.792C134.653 44.376 134.965 44.06 135.373 43.844C135.789 43.628 136.261 43.52 136.789 43.52C137.389 43.52 137.909 43.668 138.349 43.964C138.797 44.26 139.093 44.708 139.237 45.308L138.649 45.104C138.857 44.624 139.201 44.24 139.681 43.952C140.161 43.664 140.717 43.52 141.349 43.52ZM148.918 50.084C148.206 50.084 147.582 49.944 147.046 49.664C146.518 49.376 146.106 48.984 145.81 48.488C145.522 47.992 145.378 47.428 145.378 46.796C145.378 46.156 145.518 45.592 145.798 45.104C146.086 44.608 146.478 44.22 146.974 43.94C147.478 43.66 148.05 43.52 148.69 43.52C149.314 43.52 149.87 43.656 150.358 43.928C150.846 44.2 151.23 44.584 151.51 45.08C151.79 45.576 151.93 46.16 151.93 46.832C151.93 46.896 151.926 46.968 151.918 47.048C151.918 47.128 151.914 47.204 151.906 47.276H146.566V46.28H151.114L150.526 46.592C150.534 46.224 150.458 45.9 150.298 45.62C150.138 45.34 149.918 45.12 149.638 44.96C149.366 44.8 149.05 44.72 148.69 44.72C148.322 44.72 147.998 44.8 147.718 44.96C147.446 45.12 147.23 45.344 147.07 45.632C146.918 45.912 146.842 46.244 146.842 46.628V46.868C146.842 47.252 146.93 47.592 147.106 47.888C147.282 48.184 147.53 48.412 147.85 48.572C148.17 48.732 148.538 48.812 148.954 48.812C149.314 48.812 149.638 48.756 149.926 48.644C150.214 48.532 150.47 48.356 150.694 48.116L151.498 49.04C151.21 49.376 150.846 49.636 150.406 49.82C149.974 49.996 149.478 50.084 148.918 50.084ZM157.007 43.52C157.519 43.52 157.975 43.62 158.375 43.82C158.783 44.02 159.103 44.328 159.335 44.744C159.567 45.152 159.683 45.68 159.683 46.328V50H158.183V46.52C158.183 45.952 158.047 45.528 157.775 45.248C157.511 44.968 157.139 44.828 156.659 44.828C156.307 44.828 155.995 44.9 155.723 45.044C155.451 45.188 155.239 45.404 155.087 45.692C154.943 45.972 154.871 46.328 154.871 46.76V50H153.371V43.592H154.799V45.32L154.547 44.792C154.771 44.384 155.095 44.072 155.519 43.856C155.951 43.632 156.447 43.52 157.007 43.52ZM163.998 50.084C163.294 50.084 162.75 49.904 162.366 49.544C161.982 49.176 161.79 48.636 161.79 47.924V42.176H163.29V47.888C163.29 48.192 163.366 48.428 163.518 48.596C163.678 48.764 163.898 48.848 164.178 48.848C164.514 48.848 164.794 48.76 165.018 48.584L165.438 49.652C165.262 49.796 165.046 49.904 164.79 49.976C164.534 50.048 164.27 50.084 163.998 50.084ZM160.734 44.84V43.64H165.006V44.84H160.734ZM168.652 50.084C168.116 50.084 167.6 50.016 167.104 49.88C166.616 49.736 166.228 49.564 165.94 49.364L166.516 48.224C166.804 48.408 167.148 48.56 167.548 48.68C167.948 48.8 168.348 48.86 168.748 48.86C169.22 48.86 169.56 48.796 169.768 48.668C169.984 48.54 170.092 48.368 170.092 48.152C170.092 47.976 170.02 47.844 169.876 47.756C169.732 47.66 169.544 47.588 169.312 47.54C169.08 47.492 168.82 47.448 168.532 47.408C168.252 47.368 167.968 47.316 167.68 47.252C167.4 47.18 167.144 47.08 166.912 46.952C166.68 46.816 166.492 46.636 166.348 46.412C166.204 46.188 166.132 45.892 166.132 45.524C166.132 45.116 166.248 44.764 166.479 44.468C166.712 44.164 167.036 43.932 167.451 43.772C167.876 43.604 168.376 43.52 168.952 43.52C169.384 43.52 169.82 43.568 170.26 43.664C170.7 43.76 171.064 43.896 171.352 44.072L170.776 45.212C170.472 45.028 170.164 44.904 169.852 44.84C169.548 44.768 169.244 44.732 168.94 44.732C168.484 44.732 168.144 44.8 167.92 44.936C167.704 45.072 167.596 45.244 167.596 45.452C167.596 45.644 167.668 45.788 167.812 45.884C167.956 45.98 168.144 46.056 168.376 46.112C168.608 46.168 168.864 46.216 169.144 46.256C169.432 46.288 169.716 46.34 169.996 46.412C170.276 46.484 170.532 46.584 170.764 46.712C171.004 46.832 171.196 47.004 171.34 47.228C171.484 47.452 171.556 47.744 171.556 48.104C171.556 48.504 171.436 48.852 171.196 49.148C170.964 49.444 170.632 49.676 170.2 49.844C169.768 50.004 169.252 50.084 168.652 50.084Z" fill="black"/>
</svg>
