<svg width="100" height="100" viewBox="0 0 100 100" fill="none" xmlns="http://www.w3.org/2000/svg">
<g clip-path="url(#clip0_111_9483)">
<path fill-rule="evenodd" clip-rule="evenodd" d="M96.1645 69.2295C96.1645 90.458 76.9288 100.001 50.0002 100.001C23.0717 100.001 3.83594 90.458 3.83594 69.3795C3.83594 46.3009 15.3788 34.608 38.4574 22.9152L30.2859 7.69376C29.7984 6.93136 29.5269 6.05093 29.5004 5.14636C29.4739 4.24178 29.6934 3.34698 30.1355 2.55735C30.5776 1.76773 31.2257 1.1129 32.0108 0.662679C32.7958 0.212461 33.6883 -0.0162621 34.5931 0.000899372H67.2145C68.0626 0.0225993 68.8912 0.259733 69.6224 0.689984C70.3536 1.12023 70.9632 1.72945 71.394 2.4603C71.8248 3.19115 72.0626 4.01959 72.0849 4.86766C72.1072 5.71573 71.9134 6.55554 71.5216 7.30804L61.5431 22.9152C84.6145 34.4509 96.1645 46.1438 96.1645 69.2295ZM54.4645 34.908C54.4645 33.724 53.9942 32.5885 53.1569 31.7513C52.3197 30.9141 51.1842 30.4438 50.0002 30.4438C48.8162 30.4438 47.6807 30.9141 46.8435 31.7513C46.0063 32.5885 45.5359 33.724 45.5359 34.908V39.3866C42.5101 39.5032 39.6309 40.7204 37.4391 42.8097C35.2472 44.8989 33.8935 47.7165 33.6322 50.7333C33.3709 53.7501 34.2199 56.7585 36.0198 59.1936C37.8197 61.6287 40.4467 63.3229 43.4074 63.958L53.9288 66.258C55.0072 66.4902 55.9615 67.1134 56.6076 68.0075C57.2537 68.9015 57.5459 70.0032 57.4279 71.1C57.3099 72.1967 56.79 73.211 55.9684 73.9471C55.1469 74.6833 54.0819 75.0892 52.9788 75.0866H47.0216C46.0981 75.0881 45.1969 74.803 44.4421 74.2709C43.6873 73.7387 43.1162 72.9855 42.8074 72.1152C42.627 71.5441 42.3336 71.0152 41.9446 70.5598C41.5556 70.1045 41.079 69.7321 40.5431 69.4648C40.0072 69.1974 39.423 69.0407 38.8252 69.0038C38.2275 68.9669 37.6285 69.0507 37.0638 69.2501C36.4991 69.4495 35.9803 69.7605 35.5383 70.1646C35.0962 70.5686 34.74 71.0575 34.4909 71.6021C34.2417 72.1466 34.1046 72.7358 34.0878 73.3344C34.071 73.933 34.1748 74.5289 34.3931 75.0866C35.2327 77.4588 36.723 79.5468 38.6935 81.1119C40.664 82.6769 43.0352 83.6558 45.5359 83.9366V88.4795C45.5359 89.6635 46.0063 90.799 46.8435 91.6362C47.6807 92.4734 48.8162 92.9437 50.0002 92.9437C51.1842 92.9437 52.3197 92.4734 53.1569 91.6362C53.9942 90.799 54.4645 89.6635 54.4645 88.4795V83.9366C57.6163 83.5783 60.5388 82.1135 62.7121 79.8028C64.8853 77.4921 66.1684 74.4854 66.3329 71.3175C66.4975 68.1497 65.5329 65.0262 63.6108 62.5027C61.6887 59.9793 58.9337 58.2196 55.8359 57.5366L45.3145 55.2366C44.4609 55.0619 43.7031 54.575 43.1894 53.8712C42.6757 53.1674 42.4429 52.2973 42.5367 51.431C42.6305 50.5648 43.044 49.7646 43.6964 49.187C44.3489 48.6095 45.1932 48.2961 46.0645 48.308H52.9788C53.9031 48.3034 54.8057 48.5872 55.5611 49.1198C56.3165 49.6524 56.887 50.4073 57.1931 51.2795C57.6085 52.368 58.4331 53.2511 59.4908 53.74C60.5484 54.2289 61.7553 54.2849 62.8537 53.8961C63.952 53.5072 64.8549 52.7044 65.3694 51.659C65.8839 50.6136 65.9693 49.4084 65.6074 48.3009C64.7688 45.9287 63.2787 43.8408 61.3078 42.2768C59.337 40.7127 56.9652 39.7358 54.4645 39.458V34.908Z" fill="#00A698"/>
</g>
<defs>
<clipPath id="clip0_111_9483">
<rect width="100" height="100" fill="white"/>
</clipPath>
</defs>
</svg>
