<svg width="148" height="171" viewBox="0 0 148 171" fill="none" xmlns="http://www.w3.org/2000/svg">
<g clip-path="url(#clip0_112_9843)">
<path d="M94.2322 17.6138C94.824 16.8613 95.5241 16.2964 96.2277 16.0037C96.9313 15.7109 97.6005 15.7061 98.135 15.99L117.933 26.4782C118.325 26.6863 118.631 27.0424 118.826 27.5171C119.021 27.9919 119.1 28.5718 119.055 29.209C119.011 29.8462 118.845 30.5226 118.571 31.1824C118.298 31.8422 117.924 32.4666 117.48 33.0042L85.9476 71.2286L104.785 81.2081C105.249 81.4531 105.592 81.9043 105.774 82.5104C105.957 83.1165 105.972 83.853 105.818 84.6362C105.664 85.4194 105.347 86.2177 104.903 86.9403C104.459 87.6629 103.907 88.2807 103.308 88.7233L30.3795 142.631C29.6305 143.187 28.8514 143.438 28.1781 143.34C27.5049 143.241 26.9802 142.801 26.6957 142.094C26.4111 141.388 26.3848 140.46 26.6213 139.474C26.8578 138.487 27.3421 137.505 27.9897 136.697L61.7997 94.4247L45.3526 85.7117C44.9677 85.5082 44.6651 85.162 44.4689 84.7005C44.2727 84.239 44.1882 83.675 44.2223 83.0533C44.2563 82.4315 44.4079 81.7691 44.665 81.1187C44.9222 80.4683 45.2777 79.8477 45.7034 79.3064L94.2322 17.6138Z" fill="#0033CC"/>
</g>
<path fill-rule="evenodd" clip-rule="evenodd" d="M64.3176 117.387C84.7146 120.981 104.13 107.545 107.684 87.3743C111.239 67.204 97.5858 47.9401 77.1888 44.3458C56.7918 40.7515 37.3766 54.1882 33.8222 74.3585C30.2679 94.5289 43.9206 113.793 64.3176 117.387ZM62.6887 86.2232L67.7483 87.1147C68.6198 87.2683 69.0556 87.3451 69.2782 87.6592C69.5008 87.9733 69.4249 88.4043 69.273 89.2662L66.4221 105.445C65.8493 108.695 65.5623 110.324 66.2578 110.612C66.9583 110.894 67.9052 109.539 69.8101 106.833L83.693 87.0627C86.7018 82.7807 88.2061 80.6396 87.4134 78.764C86.6212 76.8848 84.0176 76.426 78.8177 75.5097L73.7582 74.6181C72.8866 74.4645 72.4508 74.3877 72.2282 74.0736C72.0056 73.7595 72.0815 73.3286 72.2334 72.4667L75.0844 56.288C75.6571 53.0377 75.9442 51.4089 75.2486 51.1206C74.5481 50.839 73.6012 52.1934 71.6963 54.9002L57.8134 74.6701C54.8047 78.9522 53.3003 81.0932 54.0931 82.9688C54.8852 84.848 57.4888 85.3068 62.6887 86.2232Z" fill="#F79E1B"/>
<defs>
<clipPath id="clip0_112_9843">
<rect width="89.6177" height="145.38" fill="white" transform="translate(68.4375 0.257812) rotate(27.913)"/>
</clipPath>
</defs>
</svg>
