<svg width="300" height="300" viewBox="0 0 300 300" fill="none" xmlns="http://www.w3.org/2000/svg">
<path d="M7.78906 192.536C7.89155 193.599 8.32092 194.628 9.04242 195.54C9.76393 196.452 10.7573 197.223 11.9422 197.788L128.316 248.919C129.604 249.416 131.026 249.675 132.47 249.675C133.913 249.675 135.336 249.416 136.623 248.919L295.842 178.906C297.097 178.402 298.148 177.646 298.881 176.721C299.613 175.795 300.001 174.735 300.001 173.655C300.001 172.574 299.613 171.514 298.881 170.588C298.148 169.663 297.097 168.907 295.842 168.403L179.478 117.272C178.191 116.775 176.768 116.516 175.325 116.516C173.881 116.516 172.459 116.775 171.172 117.272L11.9518 187.285C10.7651 187.85 9.76986 188.619 9.04665 189.532C8.32344 190.444 7.89261 191.474 7.78906 192.536Z" fill="#37474F"/>
<path d="M132.469 242.865V249.709C131.025 249.739 129.596 249.488 128.316 248.979L11.9415 197.848C10.7248 197.36 9.69988 196.635 8.97109 195.746C8.2423 194.858 7.83574 193.839 7.79285 192.792C7.74995 191.745 8.07226 190.708 8.72691 189.787C9.38156 188.866 10.3452 188.094 11.5195 187.549C9.65874 188.564 9.80262 190.054 11.9415 190.996L128.316 242.127C129.595 242.639 131.025 242.893 132.469 242.865Z" fill="#263238"/>
<path d="M3.89417 187.395C2.73626 186.799 1.77995 186.002 1.10321 185.07C0.426464 184.138 0.0484521 183.098 0 182.034V76.2737C0.0787369 75.1763 0.495769 74.1085 1.21731 73.1568C1.93885 72.205 2.94462 71.396 4.15314 70.7954L163.373 0.790172C164.608 0.291783 165.98 0.021536 167.378 0.00123508C168.776 -0.0190659 170.161 0.211148 171.42 0.673301C172.579 1.2717 173.536 2.06962 174.215 3.00239C174.893 3.93516 175.273 4.97651 175.324 6.04202V111.795C175.247 112.893 174.83 113.961 174.109 114.913C173.387 115.865 172.38 116.673 171.171 117.273L11.9511 187.286C10.7143 187.786 9.33994 188.057 7.93986 188.076C6.53977 188.095 5.15359 187.862 3.89417 187.395Z" fill="#455A64"/>
<path d="M11.4523 187.478C10.2616 187.887 8.96752 188.091 7.66152 188.077C6.35551 188.063 5.06944 187.831 3.89417 187.397C2.73789 186.799 1.78281 186.002 1.10626 185.071C0.429721 184.139 0.0507341 183.1 0 182.036V76.2757C0.0471018 75.1759 0.46672 74.104 1.21813 73.1641L9.00646 76.5825C8.26057 77.5243 7.8414 78.5951 7.78834 79.6942V185.462C7.78834 187.332 9.39013 188.172 11.4523 187.478Z" fill="#263238"/>
<path d="M7.78906 79.7003V185.46C7.78906 187.476 9.64982 188.295 11.9422 187.287L171.162 117.274C172.371 116.674 173.378 115.865 174.1 114.914C174.821 113.962 175.238 112.893 175.315 111.796V6.04282C175.315 4.0268 173.454 3.20871 171.162 4.21672L11.9422 74.222C10.7342 74.823 9.72885 75.6321 9.00738 76.5838C8.2859 77.5354 7.86855 78.603 7.78906 79.7003Z" fill="#37474F"/>
<path d="M11.9447 190.937L128.319 242.068C129.606 242.565 131.029 242.824 132.472 242.824C133.915 242.824 135.338 242.565 136.625 242.068L295.845 172.055C298.137 171.047 298.137 169.411 295.845 168.403L179.48 117.272C178.193 116.775 176.77 116.516 175.327 116.516C173.884 116.516 172.461 116.775 171.174 117.272L11.9542 187.285C9.65227 188.293 9.65227 189.907 11.9447 190.937Z" fill="#455A64"/>
<path d="M14.1735 80.0935L167.638 12.6156C169.019 12.0093 170.132 12.4987 170.132 13.7112V105.257C170.086 105.916 169.836 106.557 169.403 107.128C168.969 107.7 168.365 108.185 167.638 108.544L14.1735 176.029C12.7923 176.636 11.6797 176.146 11.6797 174.934V83.3805C11.7258 82.7217 11.9757 82.0805 12.4091 81.5093C12.8425 80.9381 13.4471 80.4529 14.1735 80.0935Z" fill="white"/>
<path opacity="0.6" d="M14.1735 80.0935L167.638 12.6156C169.019 12.0093 170.132 12.4987 170.132 13.7112V105.257C170.086 105.916 169.836 106.557 169.403 107.128C168.969 107.7 168.365 108.185 167.638 108.544L14.1735 176.029C12.7923 176.636 11.6797 176.146 11.6797 174.934V83.3805C11.7258 82.7217 11.9757 82.0805 12.4091 81.5093C12.8425 80.9381 13.4471 80.4529 14.1735 80.0935Z" fill="#0033CC"/>
<path d="M90.5982 74.302C94.6842 72.5051 98.0029 73.966 98.0029 77.5598C97.8623 79.515 97.1186 81.4175 95.8321 83.113C94.5456 84.8085 92.7525 86.2493 90.5982 87.3184C86.5122 89.1153 83.2031 87.6617 83.2031 84.068C83.3412 82.1121 84.0827 80.2085 85.3676 78.5117C86.6524 76.8149 88.4445 75.3727 90.5982 74.302Z" fill="#F0F0F0"/>
<path d="M105.188 93.526C105.188 87.624 99.7396 85.0018 93.0255 87.9527L88.834 89.8373C82.1199 92.759 76.6719 99.9684 76.6719 105.907V107.499L105.188 94.9649V93.526Z" fill="#F0F0F0"/>
<path d="M119.604 96.4126C119.335 95.9378 118.644 95.821 117.867 96.157L68.0681 118.07C67.5334 118.338 67.0884 118.698 66.7686 119.12C66.4489 119.542 66.2632 120.016 66.2266 120.502V124.958C66.2266 125.689 66.8212 126.09 67.6269 125.922L67.7612 125.886C67.8662 125.854 67.9686 125.817 68.0681 125.776L117.867 103.863C118.404 103.597 118.851 103.238 119.171 102.815C119.491 102.392 119.675 101.918 119.709 101.431V96.997C119.718 96.799 119.682 96.6014 119.604 96.4126Z" fill="#F0F0F0"/>
<path d="M72.566 118.624C73.5251 118.193 74.3212 118.544 74.3212 119.391C74.2902 119.854 74.1149 120.305 73.8097 120.707C73.5044 121.108 73.0781 121.448 72.566 121.699C71.6068 122.123 70.8203 121.78 70.8203 120.925C70.8517 120.464 71.0263 120.015 71.3298 119.615C71.6332 119.215 72.0569 118.875 72.566 118.624Z" fill="#0033CC"/>
<path d="M78.3646 116.074C79.3238 115.65 80.1103 115.994 80.1103 116.848C80.0789 117.309 79.9043 117.759 79.6008 118.158C79.2974 118.558 78.8737 118.898 78.3646 119.149C77.4055 119.58 76.6094 119.229 76.6094 118.419C76.6328 117.949 76.8046 117.491 77.1102 117.083C77.4157 116.674 77.8461 116.328 78.3646 116.074Z" fill="#0033CC"/>
<path d="M84.1459 113.535C85.105 113.111 85.8915 113.455 85.8915 114.302C85.8616 114.765 85.6877 115.215 85.3842 115.616C85.0807 116.018 84.6562 116.358 84.1459 116.61C83.1867 117.034 82.3906 116.691 82.3906 115.843C82.4216 115.38 82.597 114.929 82.9022 114.528C83.2074 114.126 83.6337 113.786 84.1459 113.535Z" fill="#0033CC"/>
<path d="M89.9332 111.02C90.8923 110.589 91.6884 110.939 91.6884 111.75C91.6574 112.213 91.4821 112.664 91.1768 113.066C90.8716 113.467 90.4453 113.807 89.9332 114.058C88.974 114.482 88.1875 114.139 88.1875 113.328C88.2174 112.865 88.3913 112.415 88.6948 112.013C88.9984 111.612 89.4228 111.271 89.9332 111.02Z" fill="#0033CC"/>
<path d="M95.7144 108.443C96.6736 108.019 97.4697 108.363 97.4697 109.217C97.4349 109.68 97.2579 110.13 96.953 110.531C96.6481 110.932 96.2239 111.272 95.7144 111.525C94.7553 111.949 93.9688 111.606 93.9688 110.751C94.0025 110.289 94.178 109.84 94.4812 109.439C94.7843 109.038 95.2067 108.697 95.7144 108.443Z" fill="#0033CC"/>
<path d="M101.505 105.909C102.464 105.485 103.251 105.829 103.251 106.639C103.221 107.102 103.047 107.552 102.744 107.954C102.44 108.355 102.016 108.696 101.505 108.948C100.546 109.371 99.75 109.028 99.75 108.217C99.781 107.754 99.9564 107.303 100.262 106.902C100.567 106.5 100.993 106.16 101.505 105.909Z" fill="#0033CC"/>
<path d="M107.293 103.359C108.252 102.936 109.038 103.279 109.038 104.126C109.008 104.589 108.834 105.039 108.531 105.441C108.227 105.842 107.803 106.183 107.293 106.434C106.333 106.858 105.547 106.515 105.547 105.667C105.577 105.205 105.751 104.754 106.054 104.353C106.358 103.952 106.782 103.611 107.293 103.359Z" fill="#0033CC"/>
<path d="M113.074 100.795C114.033 100.371 114.829 100.714 114.829 101.569C114.794 102.031 114.617 102.481 114.312 102.882C114.008 103.283 113.583 103.624 113.074 103.877C112.115 104.301 111.328 103.957 111.328 103.103C111.363 102.641 111.539 102.192 111.843 101.791C112.146 101.391 112.567 101.049 113.074 100.795Z" fill="#0033CC"/>
<path d="M25.4452 188.199L173.241 123.19C173.885 122.942 174.596 122.812 175.318 122.812C176.039 122.812 176.751 122.942 177.395 123.19L184.953 126.514C185.203 126.579 185.421 126.701 185.575 126.865C185.729 127.029 185.812 127.225 185.812 127.427C185.812 127.628 185.729 127.825 185.575 127.988C185.421 128.152 185.203 128.275 184.953 128.34L37.1373 193.342C36.4937 193.59 35.7823 193.719 35.0607 193.719C34.3392 193.719 33.6278 193.59 32.9842 193.342L25.4452 190.025C25.1947 189.961 24.9771 189.838 24.8229 189.674C24.6688 189.51 24.5859 189.314 24.5859 189.112C24.5859 188.911 24.6688 188.714 24.8229 188.551C24.9771 188.387 25.1947 188.264 25.4452 188.199Z" fill="#37474F"/>
<path d="M44.9246 196.768L192.721 131.759C193.364 131.51 194.076 131.381 194.797 131.381C195.519 131.381 196.23 131.51 196.874 131.759L243.374 152.211C243.624 152.276 243.842 152.399 243.996 152.562C244.15 152.726 244.233 152.922 244.233 153.124C244.233 153.325 244.15 153.522 243.996 153.686C243.842 153.849 243.624 153.972 243.374 154.037L95.7502 218.944C95.1043 219.191 94.3916 219.319 93.6689 219.319C92.9462 219.319 92.2335 219.191 91.5875 218.944L44.9342 198.579C44.6856 198.516 44.4694 198.394 44.3158 198.232C44.1623 198.07 44.0792 197.876 44.0781 197.676C44.0771 197.476 44.1581 197.281 44.3099 197.118C44.4617 196.956 44.6767 196.833 44.9246 196.768Z" fill="#263238"/>
<path d="M177.412 161.02L182.045 158.982C182.237 158.894 182.227 158.748 182.045 158.66L176.664 156.308C176.55 156.264 176.423 156.24 176.295 156.24C176.166 156.24 176.04 156.264 175.925 156.308L171.293 158.346C171.101 158.427 171.11 158.573 171.293 158.668L176.645 161.02C176.763 161.068 176.894 161.094 177.028 161.094C177.162 161.094 177.294 161.068 177.412 161.02ZM168.281 152.934L163.658 154.964C163.456 155.052 163.466 155.198 163.658 155.293L169.01 157.645C169.125 157.688 169.251 157.711 169.379 157.711C169.507 157.711 169.634 157.688 169.748 157.645L174.381 155.607C174.573 155.52 174.563 155.373 174.381 155.286L168.991 152.948C168.882 152.905 168.761 152.881 168.638 152.878C168.515 152.876 168.393 152.895 168.281 152.934ZM153.328 159.508L145.501 162.948C145.3 163.036 145.319 163.182 145.501 163.277L150.843 165.629C150.958 165.672 151.085 165.694 151.213 165.694C151.341 165.694 151.467 165.672 151.582 165.629L159.418 162.188C159.61 162.101 159.601 161.955 159.418 161.867L154.066 159.508C153.951 159.465 153.825 159.442 153.697 159.442C153.569 159.442 153.443 159.465 153.328 159.508ZM161.519 155.907L156.886 157.945C156.694 158.025 156.704 158.171 156.886 158.266L162.277 160.618C162.391 160.661 162.518 160.684 162.646 160.684C162.774 160.684 162.9 160.661 163.015 160.618L167.638 158.58C167.84 158.492 167.83 158.346 167.638 158.259L162.277 155.921C162.162 155.872 162.032 155.844 161.9 155.842C161.768 155.839 161.637 155.862 161.519 155.907ZM143.362 163.89L138.739 165.921C138.538 166.009 138.547 166.155 138.739 166.25L144.091 168.602C144.205 168.647 144.332 168.67 144.46 168.67C144.589 168.67 144.715 168.647 144.83 168.602L149.462 166.571C149.654 166.483 149.645 166.337 149.462 166.242L144.11 163.89C143.994 163.846 143.866 163.823 143.736 163.823C143.606 163.823 143.478 163.846 143.362 163.89ZM136.6 166.863L131.977 168.894C131.775 168.982 131.785 169.128 131.977 169.223L137.339 171.575C137.453 171.618 137.58 171.64 137.708 171.64C137.836 171.64 137.962 171.618 138.077 171.575L142.71 169.537C142.902 169.449 142.892 169.303 142.71 169.215L137.339 166.878C137.226 166.831 137.1 166.805 136.972 166.802C136.843 166.8 136.716 166.821 136.6 166.863ZM157.644 176.432L162.277 174.394C162.468 174.306 162.459 174.16 162.277 174.073L156.925 171.721C156.81 171.676 156.684 171.652 156.555 171.652C156.427 171.652 156.3 171.676 156.186 171.721L151.563 173.759C151.361 173.839 151.381 173.985 151.563 174.08L156.905 176.432C157.02 176.477 157.146 176.5 157.275 176.5C157.403 176.5 157.53 176.477 157.644 176.432ZM150.93 179.405L155.563 177.367C155.754 177.279 155.745 177.141 155.563 177.046L150.21 174.694C150.096 174.649 149.97 174.625 149.841 174.625C149.713 174.625 149.586 174.649 149.472 174.694L144.849 176.732C144.647 176.819 144.657 176.958 144.849 177.053L150.201 179.405C150.307 179.443 150.424 179.462 150.541 179.462C150.659 179.462 150.775 179.443 150.882 179.405H150.93ZM144.168 182.378L148.8 180.34C148.992 180.26 148.983 180.113 148.8 180.018L143.448 177.666C143.334 177.622 143.208 177.598 143.079 177.598C142.951 177.598 142.824 177.622 142.71 177.666L138.01 179.682C137.809 179.77 137.818 179.916 138.01 180.004L143.362 182.356C143.476 182.407 143.605 182.435 143.737 182.439C143.869 182.443 144.001 182.422 144.12 182.378H144.168ZM137.454 185.351L142.086 183.313C142.278 183.232 142.269 183.086 142.086 182.991L136.734 180.639C136.619 180.596 136.493 180.574 136.365 180.574C136.237 180.574 136.111 180.596 135.996 180.639L131.363 182.677C131.171 182.765 131.181 182.911 131.363 182.999L136.715 185.351C136.814 185.382 136.92 185.398 137.027 185.398C137.134 185.398 137.24 185.382 137.339 185.351H137.454ZM170.746 163.993L175.369 161.955C175.57 161.867 175.561 161.728 175.369 161.633L169.95 159.281C169.836 159.237 169.709 159.213 169.581 159.213C169.452 159.213 169.325 159.237 169.211 159.281L164.579 161.319C164.387 161.407 164.396 161.546 164.579 161.641L169.95 163.978C170.058 164.02 170.176 164.044 170.298 164.046C170.419 164.049 170.539 164.031 170.65 163.993H170.746ZM164.511 173.488L174.746 168.916C174.937 168.828 174.928 168.682 174.746 168.594L161.711 162.882C161.597 162.838 161.47 162.814 161.341 162.814C161.213 162.814 161.086 162.838 160.972 162.882L155.639 165.227C155.438 165.315 155.447 165.461 155.639 165.556L162.526 168.58C162.737 168.675 162.747 168.821 162.526 168.901L158.258 170.778C158.056 170.866 158.075 171.012 158.258 171.107L163.61 173.459C163.733 173.511 163.872 173.538 164.013 173.538C164.154 173.538 164.292 173.511 164.416 173.459L164.511 173.488ZM129.982 169.836L125.349 171.874C125.157 171.954 125.167 172.101 125.349 172.195L130.624 174.569C130.739 174.613 130.866 174.635 130.994 174.635C131.122 174.635 131.248 174.613 131.363 174.569L135.986 172.531C136.188 172.444 136.178 172.298 135.986 172.21L130.624 169.851C130.506 169.797 130.371 169.768 130.234 169.765C130.096 169.763 129.96 169.787 129.838 169.836H129.982ZM123.22 172.809L118.587 174.847C118.395 174.935 118.405 175.073 118.587 175.168L123.939 177.52C124.053 177.565 124.18 177.589 124.308 177.589C124.437 177.589 124.564 177.565 124.678 177.52L129.301 175.482C129.502 175.395 129.493 175.249 129.301 175.161L123.949 172.809C123.819 172.745 123.667 172.711 123.512 172.711C123.358 172.711 123.206 172.745 123.076 172.809H123.22ZM89.4192 206.154C89.5334 206.198 89.66 206.222 89.7885 206.222C89.9169 206.222 90.0435 206.198 90.1577 206.154L94.7905 204.116C94.9823 204.028 94.9727 203.882 94.7905 203.794L89.4384 201.442C89.3242 201.397 89.1976 201.374 89.0691 201.374C88.9406 201.374 88.814 201.397 88.6998 201.442L84.0767 203.48C83.8753 203.561 83.8849 203.707 84.0767 203.802L89.4192 206.154ZM69.1139 196.599L64.3373 198.674C64.1455 198.754 64.155 198.9 64.3373 198.995L69.6894 201.347C69.8042 201.39 69.9306 201.413 70.0586 201.413C70.1867 201.413 70.3131 201.39 70.4279 201.347L75.051 199.309C75.2525 199.222 75.2429 199.076 75.051 198.988L69.699 196.636C69.5898 196.587 69.4669 196.558 69.3402 196.551C69.2135 196.545 69.0867 196.561 68.97 196.599H69.1139ZM80.0003 203.575C80.1145 203.62 80.2411 203.643 80.3696 203.643C80.498 203.643 80.6247 203.62 80.7388 203.575L85.362 201.537C85.5634 201.45 85.5442 201.303 85.362 201.216L80.0099 198.864C79.8957 198.819 79.7691 198.796 79.6406 198.796C79.5121 198.796 79.3855 198.819 79.2713 198.864L74.6482 200.902C74.4564 200.989 74.466 201.128 74.6482 201.223L80.0003 203.575ZM101.361 207.958L105.993 205.92C106.185 205.832 106.176 205.686 105.993 205.598L100.641 203.246C100.527 203.202 100.4 203.178 100.272 203.178C100.144 203.178 100.017 203.202 99.9027 203.246L95.1357 205.248C94.9343 205.328 94.9439 205.474 95.1357 205.569L100.488 207.921C100.597 207.97 100.719 208 100.846 208.007C100.972 208.015 101.099 208 101.217 207.965L101.361 207.958ZM93.8601 210.88C93.9743 210.924 94.1009 210.948 94.2293 210.948C94.3578 210.948 94.4844 210.924 94.5986 210.88L99.2313 208.842C99.4232 208.754 99.4136 208.608 99.2313 208.52L93.8793 206.168C93.7651 206.123 93.6384 206.1 93.51 206.1C93.3815 206.1 93.2549 206.123 93.1407 206.168L88.508 208.206C88.3162 208.286 88.3257 208.433 88.508 208.528L93.8601 210.88ZM75.8759 193.583L71.2432 195.613C71.0514 195.701 71.061 195.847 71.2432 195.942L76.5953 198.294C76.7101 198.337 76.8365 198.36 76.9646 198.36C77.0926 198.36 77.219 198.337 77.3338 198.294L81.957 196.256C82.1584 196.169 82.1488 196.022 81.957 195.935L76.6049 193.575C76.4674 193.522 76.3131 193.498 76.159 193.507C76.0048 193.516 75.857 193.557 75.732 193.627L75.8759 193.583ZM109.523 178.755L104.89 180.793C104.699 180.88 104.708 181.026 104.89 181.114L110.242 183.466C110.357 183.511 110.483 183.534 110.612 183.534C110.74 183.534 110.867 183.511 110.981 183.466L115.604 181.428C115.806 181.348 115.786 181.202 115.604 181.107L110.252 178.755C110.139 178.712 110.014 178.689 109.888 178.689C109.761 178.689 109.636 178.712 109.523 178.755ZM82.4941 190.639L77.871 192.684C77.6695 192.772 77.6791 192.918 77.871 193.013L83.223 195.365C83.3372 195.41 83.4638 195.433 83.5923 195.433C83.7208 195.433 83.8474 195.41 83.9616 195.365L88.5943 193.334C88.7861 193.247 88.7765 193.101 88.5943 193.006L83.2326 190.639C83.1178 190.596 82.9914 190.573 82.8634 190.573C82.7353 190.573 82.6089 190.596 82.4941 190.639ZM116.314 175.767L111.681 177.805C111.489 177.893 111.499 178.039 111.681 178.127L117.033 180.479C117.147 180.524 117.274 180.547 117.403 180.547C117.531 180.547 117.658 180.524 117.772 180.479L122.395 178.441C122.596 178.353 122.577 178.214 122.395 178.119L117.043 175.767C116.928 175.726 116.803 175.706 116.676 175.708C116.549 175.711 116.425 175.736 116.314 175.782V175.767ZM102.809 181.728L98.1859 183.766C97.9844 183.853 98.0036 183.999 98.1859 184.087L103.538 186.439C103.652 186.484 103.779 186.507 103.907 186.507C104.036 186.507 104.162 186.484 104.276 186.439L108.9 184.408C109.091 184.321 109.082 184.175 108.9 184.08L103.548 181.728C103.433 181.685 103.306 181.662 103.178 181.662C103.05 181.662 102.924 181.685 102.809 181.728ZM96.0469 184.708L91.4238 186.739C91.2224 186.826 91.2416 186.972 91.4238 187.06L96.7663 189.419C96.8812 189.462 97.0075 189.485 97.1356 189.485C97.2637 189.485 97.39 189.462 97.5049 189.419L102.138 187.389C102.329 187.301 102.32 187.155 102.138 187.06L96.7855 184.708C96.6677 184.659 96.5358 184.634 96.4018 184.634C96.2679 184.634 96.136 184.659 96.0182 184.708H96.0469ZM89.3329 187.681L84.7097 189.711C84.5083 189.799 84.5179 189.945 84.7097 190.04L90.0618 192.392C90.1767 192.435 90.303 192.458 90.4311 192.458C90.5592 192.458 90.6855 192.435 90.8004 192.392L95.4331 190.362C95.6249 190.274 95.6153 190.128 95.4331 190.033L89.9947 187.717C89.8798 187.674 89.7535 187.652 89.6254 187.652C89.4973 187.652 89.371 187.674 89.2561 187.717L89.3329 187.681ZM123.862 191.296L128.486 189.266C128.687 189.178 128.668 189.032 128.486 188.937L123.133 186.585C123.019 186.54 122.893 186.517 122.764 186.517C122.636 186.517 122.509 186.54 122.395 186.585L117.762 188.616C117.57 188.703 117.58 188.849 117.762 188.944L123.114 191.296C123.227 191.337 123.35 191.359 123.474 191.359C123.598 191.359 123.721 191.337 123.834 191.296H123.862ZM183.263 146.36L178.582 148.398C178.39 148.478 178.4 148.624 178.582 148.719L183.934 151.071C184.049 151.114 184.176 151.137 184.304 151.137C184.432 151.137 184.558 151.114 184.673 151.071L189.296 149.033C189.497 148.946 189.488 148.8 189.296 148.712L183.944 146.36C183.833 146.319 183.712 146.297 183.589 146.297C183.466 146.297 183.345 146.319 183.234 146.36H183.263ZM175.072 149.961L170.449 151.992C170.247 152.079 170.257 152.225 170.449 152.32L175.801 154.672C175.915 154.717 176.041 154.741 176.17 154.741C176.298 154.741 176.425 154.717 176.539 154.672L181.172 152.642C181.364 152.554 181.354 152.408 181.172 152.313L175.82 149.961C175.7 149.913 175.567 149.888 175.431 149.888C175.296 149.888 175.163 149.913 175.043 149.961H175.072ZM190.025 143.387L185.392 145.418C185.2 145.505 185.21 145.651 185.392 145.746L190.744 148.098C190.859 148.141 190.986 148.164 191.114 148.164C191.242 148.164 191.368 148.141 191.483 148.098L196.106 146.06C196.307 145.973 196.298 145.827 196.106 145.739L190.754 143.38C190.636 143.335 190.506 143.313 190.374 143.314C190.242 143.315 190.113 143.34 189.996 143.387H190.025ZM154.987 170.917L159.62 168.879C159.812 168.792 159.802 168.646 159.62 168.558L154.268 166.199C154.153 166.155 154.026 166.133 153.898 166.133C153.77 166.133 153.644 166.155 153.529 166.199L148.848 168.185C148.657 168.273 148.666 168.419 148.848 168.514L154.201 170.866C154.316 170.923 154.448 170.958 154.585 170.967C154.723 170.976 154.861 170.959 154.987 170.917ZM197.497 140.458C197.382 140.415 197.256 140.392 197.127 140.392C196.999 140.392 196.873 140.415 196.758 140.458L192.135 142.43C191.934 142.518 191.943 142.664 192.135 142.759L197.487 145.111C197.601 145.156 197.728 145.179 197.856 145.179C197.985 145.179 198.112 145.156 198.226 145.111L202.858 143.08C203.05 142.993 203.041 142.846 202.858 142.752L197.497 140.458ZM130.624 188.324L135.248 186.293C135.449 186.205 135.439 186.059 135.248 185.964L129.896 183.612C129.781 183.569 129.654 183.547 129.526 183.547C129.398 183.547 129.272 183.569 129.157 183.612L124.524 185.65C124.332 185.738 124.342 185.884 124.524 185.972L129.876 188.331C129.993 188.374 130.122 188.396 130.252 188.395C130.381 188.393 130.509 188.369 130.624 188.324ZM213.563 151.86L218.186 149.822C218.387 149.735 218.378 149.588 218.186 149.501L212.834 147.149C212.719 147.104 212.593 147.081 212.464 147.081C212.336 147.081 212.209 147.104 212.095 147.149L207.462 149.187C207.271 149.267 207.28 149.413 207.462 149.508L212.814 151.86C212.926 151.903 213.049 151.925 213.174 151.925C213.299 151.925 213.422 151.903 213.534 151.86H213.563ZM199.175 151.473L203.798 149.435C204 149.347 203.99 149.201 203.798 149.114L198.446 146.762C198.332 146.717 198.206 146.693 198.077 146.693C197.949 146.693 197.822 146.717 197.708 146.762L192.97 148.785C192.778 148.865 192.787 149.011 192.97 149.106L198.322 151.458C198.442 151.514 198.58 151.545 198.722 151.548C198.863 151.55 199.003 151.525 199.127 151.473H199.175ZM205.189 143.781C205.074 143.738 204.948 143.716 204.82 143.716C204.692 143.716 204.565 143.738 204.451 143.781L199.818 145.812C199.626 145.9 199.636 146.046 199.818 146.141L205.17 148.493C205.285 148.536 205.411 148.558 205.539 148.558C205.667 148.558 205.794 148.536 205.909 148.493L210.541 146.455C210.733 146.367 210.724 146.221 210.541 146.133L205.189 143.781ZM206.609 143.161L219.605 148.873C219.72 148.916 219.846 148.938 219.975 148.938C220.103 148.938 220.229 148.916 220.344 148.873L224.977 146.835C225.168 146.747 225.159 146.601 224.977 146.513L211.98 140.794C211.865 140.751 211.739 140.728 211.611 140.728C211.483 140.728 211.356 140.751 211.241 140.794L206.618 142.825C206.34 142.92 206.398 143.066 206.561 143.161H206.609ZM190.927 149.735L186.255 151.758C186.064 151.845 186.073 151.984 186.255 152.079L191.608 154.431C191.722 154.476 191.848 154.499 191.977 154.499C192.105 154.499 192.232 154.476 192.346 154.431L196.969 152.393C197.171 152.306 197.161 152.167 196.969 152.072L191.617 149.735C191.503 149.69 191.376 149.666 191.248 149.666C191.119 149.666 190.993 149.69 190.879 149.735H190.927ZM140.024 172.115L135.391 174.153C135.2 174.241 135.209 174.38 135.391 174.474L140.744 176.826C140.858 176.871 140.984 176.895 141.113 176.895C141.241 176.895 141.368 176.871 141.482 176.826L146.105 174.789C146.307 174.701 146.287 174.562 146.105 174.467L140.763 172.115C140.644 172.062 140.51 172.032 140.372 172.03C140.234 172.027 140.098 172.052 139.976 172.101L140.024 172.115ZM206.033 154.848C206.147 154.892 206.274 154.916 206.403 154.916C206.531 154.916 206.658 154.892 206.772 154.848L211.395 152.81C211.596 152.722 211.587 152.583 211.395 152.488L206.043 150.136C205.929 150.091 205.802 150.068 205.674 150.068C205.545 150.068 205.418 150.091 205.304 150.136L200.643 152.145C200.451 152.233 200.461 152.371 200.643 152.466L206.033 154.848ZM146.738 169.128L142.134 171.166C141.943 171.246 141.952 171.392 142.134 171.487L147.486 173.839C147.601 173.884 147.727 173.907 147.856 173.907C147.984 173.907 148.111 173.884 148.225 173.839L152.848 171.801C153.05 171.713 153.04 171.567 152.848 171.48L147.496 169.128C147.379 169.08 147.249 169.056 147.117 169.056C146.985 169.056 146.855 169.08 146.738 169.128ZM96.0374 203.181C96.1522 203.224 96.2786 203.246 96.4066 203.246C96.5347 203.246 96.6611 203.224 96.7759 203.181L101.409 201.143C101.6 201.055 101.591 200.909 101.409 200.821L96.0565 198.469C95.9424 198.425 95.8157 198.401 95.6873 198.401C95.5588 198.401 95.4322 198.425 95.318 198.469L90.6949 200.507C90.4934 200.588 90.503 200.734 90.6949 200.829L96.0374 203.181ZM85.8703 195.876L81.2376 197.943C81.0458 198.024 81.0553 198.17 81.2376 198.265L86.5897 200.617C86.7045 200.66 86.8309 200.682 86.959 200.682C87.087 200.682 87.2134 200.66 87.3282 200.617L91.9513 198.579C92.1528 198.491 92.1336 198.345 91.9513 198.258L86.6089 195.906C86.4962 195.858 86.3704 195.833 86.2419 195.83C86.1134 195.827 85.986 195.848 85.8703 195.891V195.876ZM103.538 200.208L108.171 198.17C108.362 198.082 108.353 197.936 108.171 197.849L102.809 195.504C102.694 195.461 102.568 195.438 102.44 195.438C102.312 195.438 102.185 195.461 102.07 195.504L97.4473 197.534C97.2459 197.622 97.2651 197.768 97.4473 197.863L102.809 200.208C102.921 200.252 103.045 200.276 103.171 200.279C103.298 200.282 103.423 200.262 103.538 200.222V200.208ZM110.31 197.228L114.933 195.197C115.125 195.109 115.115 194.963 114.933 194.868L109.523 192.531C109.408 192.488 109.282 192.465 109.154 192.465C109.026 192.465 108.899 192.488 108.785 192.531L104.161 194.562C103.96 194.649 103.979 194.795 104.161 194.89L109.513 197.242C109.638 197.29 109.777 197.313 109.917 197.308C110.056 197.303 110.192 197.27 110.31 197.213V197.228ZM117.072 194.255L121.695 192.224C121.896 192.136 121.877 191.99 121.695 191.895L116.343 189.543C116.229 189.5 116.105 189.478 115.978 189.478C115.852 189.478 115.727 189.5 115.614 189.543L110.981 191.574C110.789 191.662 110.799 191.808 110.981 191.903L116.333 194.291C116.448 194.334 116.574 194.357 116.702 194.357C116.83 194.357 116.957 194.334 117.072 194.291V194.255ZM92.6324 192.903L87.9996 194.934C87.8078 195.022 87.8174 195.168 87.9996 195.263L93.3517 197.615C93.4666 197.658 93.5929 197.68 93.721 197.68C93.8491 197.68 93.9754 197.658 94.0903 197.615L98.7134 195.577C98.9148 195.489 98.9052 195.343 98.7134 195.255L93.3613 192.896C93.2456 192.858 93.1198 192.839 92.9935 192.843C92.8672 192.847 92.7437 192.873 92.6324 192.918V192.903ZM99.3944 189.931L94.7617 191.961C94.5698 192.049 94.5794 192.195 94.7617 192.29L100.114 194.642C100.228 194.687 100.355 194.71 100.483 194.71C100.612 194.71 100.738 194.687 100.852 194.642L105.475 192.611C105.677 192.524 105.667 192.378 105.475 192.283L100.123 189.931C100.008 189.891 99.8829 189.871 99.7567 189.874C99.6304 189.877 99.5065 189.901 99.3944 189.945V189.931ZM126.443 178.032L121.819 180.07C121.618 180.157 121.637 180.303 121.819 180.391L127.172 182.743C127.284 182.788 127.409 182.811 127.536 182.811C127.663 182.811 127.788 182.788 127.9 182.743L132.533 180.705C132.725 180.625 132.715 180.479 132.533 180.384L127.181 178.032C127.065 177.991 126.938 177.971 126.81 177.973C126.682 177.976 126.556 178.001 126.443 178.046V178.032ZM119.728 181.005L115.105 183.043C114.904 183.13 114.923 183.276 115.105 183.364L120.448 185.723C120.563 185.766 120.689 185.789 120.817 185.789C120.945 185.789 121.072 185.766 121.186 185.723L125.819 183.693C126.011 183.605 126.001 183.459 125.819 183.364L120.467 181.012C120.345 180.964 120.21 180.939 120.073 180.941C119.935 180.942 119.801 180.969 119.681 181.019L119.728 181.005ZM133.262 175.059L128.629 177.097C128.438 177.184 128.447 177.33 128.629 177.418L133.982 179.77C134.096 179.815 134.222 179.838 134.351 179.838C134.479 179.838 134.606 179.815 134.72 179.77L139.343 177.732C139.545 177.652 139.525 177.506 139.343 177.411L133.991 175.059C133.871 175.01 133.736 174.985 133.6 174.988C133.464 174.991 133.331 175.02 133.214 175.073L133.262 175.059ZM106.156 186.987L101.533 189.018C101.332 189.105 101.341 189.251 101.533 189.346L106.885 191.698C107 191.741 107.127 191.764 107.255 191.764C107.383 191.764 107.509 191.741 107.624 191.698L112.257 189.668C112.449 189.58 112.439 189.434 112.257 189.339L106.895 186.987C106.78 186.944 106.654 186.921 106.526 186.921C106.398 186.921 106.271 186.944 106.156 186.987ZM112.871 184.014L108.247 186.045C108.046 186.132 108.056 186.278 108.247 186.373L113.599 188.725C113.714 188.768 113.841 188.791 113.969 188.791C114.097 188.791 114.223 188.768 114.338 188.725L118.971 186.695C119.163 186.607 119.153 186.461 118.971 186.366L113.619 184.014C113.511 183.972 113.392 183.948 113.271 183.946C113.15 183.943 113.029 183.962 112.918 183.999L112.871 184.014ZM107.931 205.007L112.564 202.969C112.755 202.881 112.746 202.735 112.564 202.647L107.212 200.288C107.097 200.245 106.97 200.223 106.842 200.223C106.714 200.223 106.588 200.245 106.473 200.288L101.85 202.326C101.648 202.414 101.658 202.56 101.85 202.655L107.192 205.007C107.315 205.054 107.451 205.077 107.588 205.075C107.725 205.072 107.859 205.044 107.979 204.992L107.931 205.007ZM68.2794 201.939L62.9369 199.587C62.8227 199.542 62.6961 199.519 62.5676 199.519C62.4392 199.519 62.3126 199.542 62.1984 199.587L57.5752 201.596C57.3834 201.676 57.393 201.822 57.5752 201.917L62.9273 204.269C63.0415 204.314 63.1681 204.337 63.2966 204.337C63.4251 204.337 63.5517 204.314 63.6659 204.269L68.289 202.231C68.5192 202.173 68.5 202.027 68.2794 201.939ZM78.4177 204.203L73.0752 201.851C72.961 201.806 72.8344 201.783 72.7059 201.783C72.5774 201.783 72.4508 201.806 72.3366 201.851L65.2197 204.985C65.0279 205.073 65.0375 205.211 65.2197 205.306L70.5718 207.658C70.686 207.703 70.8126 207.727 70.9411 207.727C71.0695 207.727 71.1962 207.703 71.3103 207.658L78.4273 204.525C78.6479 204.437 78.6383 204.298 78.4273 204.203H78.4177ZM60.0786 197.388L54.7361 195.022C54.6213 194.979 54.4949 194.956 54.3669 194.956C54.2388 194.956 54.1124 194.979 53.9976 195.022L48.3002 197.527C48.0988 197.615 48.118 197.761 48.3002 197.856L53.6427 200.208C53.7576 200.251 53.8839 200.273 54.012 200.273C54.1401 200.273 54.2664 200.251 54.3813 200.208L60.0786 197.702C60.3088 197.629 60.2992 197.483 60.0882 197.388H60.0786ZM64.4428 195.467C64.557 195.512 64.6836 195.536 64.8121 195.536C64.9405 195.536 65.0672 195.512 65.1813 195.467L69.8045 193.429C70.0059 193.342 69.9867 193.203 69.8045 193.108L64.4428 190.771C64.3286 190.726 64.202 190.702 64.0735 190.702C63.945 190.702 63.8184 190.726 63.7042 190.771L59.0715 192.83C58.8797 192.918 58.8893 193.057 59.0715 193.152L64.4428 195.467ZM87.8462 206.782L82.4941 204.43C82.3799 204.385 82.2533 204.362 82.1248 204.362C81.9963 204.362 81.8697 204.385 81.7555 204.43L72.8546 208.345C72.6628 208.433 72.6723 208.579 72.8546 208.666L78.2067 211.018C78.3209 211.063 78.4475 211.087 78.5759 211.087C78.7044 211.087 78.831 211.063 78.9452 211.018L87.8366 207.103C88.0764 207.016 88.0668 206.877 87.8558 206.782H87.8462ZM92.2871 211.552L86.935 209.2C86.8208 209.155 86.6942 209.131 86.5657 209.131C86.4372 209.131 86.3106 209.155 86.1964 209.2L80.499 211.705C80.3072 211.793 80.3168 211.939 80.499 212.026L85.8511 214.386C85.966 214.429 86.0923 214.451 86.2204 214.451C86.3485 214.451 86.4748 214.429 86.5897 214.386L92.2775 211.88C92.5173 211.822 92.5077 211.647 92.2583 211.552H92.2871ZM114.722 173.357C114.836 173.402 114.962 173.425 115.091 173.425C115.219 173.425 115.346 173.402 115.46 173.357L120.093 171.319C120.285 171.239 120.275 171.093 120.093 170.998L114.741 168.646C114.627 168.601 114.5 168.577 114.372 168.577C114.243 168.577 114.117 168.601 114.002 168.646L109.379 170.683C109.178 170.771 109.197 170.917 109.379 171.005L114.722 173.357ZM101.198 179.31C101.312 179.353 101.439 179.376 101.567 179.376C101.695 179.376 101.821 179.353 101.936 179.31L106.569 177.279C106.761 177.192 106.751 177.046 106.569 176.951L101.217 174.599C101.102 174.555 100.976 174.533 100.848 174.533C100.719 174.533 100.593 174.555 100.478 174.599L95.8551 176.637C95.6537 176.724 95.6633 176.87 95.8551 176.958L101.198 179.31ZM71.2048 192.494C71.319 192.539 71.4456 192.563 71.5741 192.563C71.7026 192.563 71.8292 192.539 71.9434 192.494L76.5665 190.456C76.7679 190.369 76.7583 190.223 76.5665 190.135L71.2144 187.783C71.1002 187.738 70.9736 187.715 70.8452 187.715C70.7167 187.715 70.5901 187.738 70.4759 187.783L65.8432 189.821C65.6513 189.901 65.6609 190.047 65.8432 190.142L71.2048 192.494ZM107.96 176.33C108.074 176.375 108.2 176.398 108.329 176.398C108.457 176.398 108.584 176.375 108.698 176.33L113.331 174.292C113.523 174.212 113.513 174.065 113.331 173.97L107.96 171.648C107.845 171.605 107.718 171.582 107.59 171.582C107.462 171.582 107.336 171.605 107.221 171.648L102.598 173.686C102.397 173.773 102.406 173.919 102.598 174.007L107.96 176.33ZM94.4356 182.283C94.5504 182.326 94.6768 182.348 94.8048 182.348C94.9329 182.348 95.0593 182.326 95.1741 182.283L99.8068 180.252C99.9987 180.165 99.9891 180.018 99.8068 179.924L94.4547 177.572C94.3406 177.527 94.2139 177.503 94.0855 177.503C93.957 177.503 93.8304 177.527 93.7162 177.572L89.0835 179.602C88.8917 179.69 88.9012 179.836 89.0835 179.931L94.4356 182.283ZM95.999 211.931C95.8848 211.887 95.7582 211.863 95.6297 211.863C95.5012 211.863 95.3746 211.887 95.2604 211.931L88.1435 215.058C87.9517 215.145 87.9613 215.291 88.1435 215.386L93.4956 217.738C93.6104 217.782 93.7368 217.804 93.8649 217.804C93.9929 217.804 94.1193 217.782 94.2341 217.738L101.351 214.612C101.543 214.524 101.533 214.378 101.351 214.283L95.999 211.931ZM84.7385 186.549C84.8527 186.593 84.9793 186.617 85.1078 186.617C85.2363 186.617 85.3629 186.593 85.4771 186.549L90.1098 184.518C90.3016 184.43 90.292 184.284 90.1098 184.189L84.7289 181.874C84.6141 181.831 84.4877 181.808 84.3596 181.808C84.2316 181.808 84.1052 181.831 83.9904 181.874L79.3672 183.904C79.1658 183.992 79.1754 184.138 79.3672 184.233L84.7385 186.549ZM78.0244 189.522C78.1393 189.565 78.2656 189.587 78.3937 189.587C78.5218 189.587 78.6481 189.565 78.763 189.522L83.3861 187.484C83.5875 187.396 83.5779 187.25 83.3861 187.162L77.9669 184.796C77.8527 184.751 77.7261 184.727 77.5976 184.727C77.4691 184.727 77.3425 184.751 77.2283 184.796L72.5956 186.826C72.4038 186.914 72.4134 187.06 72.5956 187.155L78.0244 189.522ZM221.361 156.842C221.246 156.799 221.119 156.776 220.991 156.776C220.863 156.776 220.737 156.799 220.622 156.842L209.227 161.852C209.035 161.94 209.045 162.086 209.227 162.181L214.579 164.533C214.694 164.576 214.821 164.599 214.949 164.599C215.077 164.599 215.203 164.576 215.318 164.533L226.703 159.522C226.904 159.442 226.895 159.296 226.703 159.201L221.361 156.842ZM206.407 163.416C206.293 163.371 206.167 163.347 206.038 163.347C205.91 163.347 205.783 163.371 205.669 163.416L201.046 165.454C200.844 165.541 200.854 165.687 201.046 165.775L206.398 168.127C206.512 168.172 206.639 168.195 206.767 168.195C206.895 168.195 207.022 168.172 207.136 168.127L211.769 166.089C211.961 166.009 211.951 165.863 211.769 165.768L206.407 163.416ZM114.789 202.012L119.422 199.981C119.613 199.894 119.604 199.748 119.422 199.653L114.069 197.301C113.955 197.258 113.828 197.235 113.7 197.235C113.572 197.235 113.446 197.258 113.331 197.301L108.708 199.331C108.506 199.419 108.526 199.565 108.708 199.66L114.06 202.012C114.166 202.051 114.283 202.071 114.4 202.071C114.518 202.071 114.635 202.051 114.741 202.012H114.789ZM192.883 169.361C192.769 169.317 192.642 169.293 192.514 169.293C192.385 169.293 192.259 169.317 192.145 169.361L187.512 171.392C187.32 171.48 187.33 171.626 187.512 171.721L192.864 174.073C192.979 174.116 193.105 174.138 193.233 174.138C193.361 174.138 193.488 174.116 193.603 174.073L198.226 172.042C198.427 171.954 198.418 171.808 198.226 171.713L192.883 169.361ZM228.123 153.869C228.008 153.824 227.882 153.801 227.753 153.801C227.625 153.801 227.498 153.824 227.384 153.869L222.703 155.892C222.512 155.98 222.521 156.126 222.703 156.213L228.055 158.566C228.17 158.61 228.296 158.634 228.425 158.634C228.553 158.634 228.68 158.61 228.794 158.566L233.417 156.528C233.619 156.447 233.609 156.301 233.417 156.206L228.123 153.869ZM240.237 153.248L227.192 147.543C227.078 147.498 226.951 147.475 226.823 147.475C226.694 147.475 226.568 147.498 226.454 147.543L221.831 149.581C221.629 149.661 221.639 149.808 221.831 149.903L234.846 155.578C234.96 155.623 235.087 155.646 235.216 155.646C235.344 155.646 235.471 155.623 235.585 155.578L240.218 153.54C240.409 153.482 240.4 153.343 240.189 153.248H240.237ZM167.609 180.471C167.495 180.428 167.368 180.406 167.24 180.406C167.112 180.406 166.986 180.428 166.871 180.471L161.174 182.977C160.972 183.057 160.991 183.203 161.174 183.298L166.526 185.65C166.64 185.695 166.766 185.718 166.895 185.718C167.023 185.718 167.15 185.695 167.264 185.65L172.952 183.145C173.153 183.057 173.144 182.911 172.952 182.823L167.609 180.471ZM184.692 172.962C184.577 172.919 184.451 172.897 184.323 172.897C184.195 172.897 184.068 172.919 183.954 172.962L176.837 176.096C176.635 176.184 176.654 176.33 176.837 176.417L182.189 178.769C182.303 178.814 182.429 178.838 182.558 178.838C182.686 178.838 182.813 178.814 182.927 178.769L190.044 175.636C190.236 175.556 190.226 175.409 190.044 175.314L184.692 172.962ZM151.946 187.359C151.832 187.315 151.706 187.291 151.577 187.291C151.449 187.291 151.322 187.315 151.208 187.359L113.072 204.094C112.871 204.181 112.89 204.327 113.072 204.422L118.414 206.774C118.529 206.818 118.656 206.84 118.784 206.84C118.912 206.84 119.038 206.818 119.153 206.774L157.241 190.033C157.442 189.945 157.433 189.799 157.241 189.704L151.946 187.359ZM111.72 205.043C111.605 205 111.478 204.978 111.35 204.978C111.222 204.978 111.096 205 110.981 205.043L105.284 207.549C105.092 207.629 105.101 207.775 105.284 207.87L110.636 210.222C110.75 210.267 110.876 210.29 111.005 210.29C111.133 210.29 111.26 210.267 111.374 210.222L117.072 207.717C117.263 207.629 117.254 207.483 117.072 207.395L111.72 205.043ZM159.773 183.919C159.659 183.874 159.532 183.851 159.404 183.851C159.275 183.851 159.149 183.874 159.035 183.919L153.347 186.424C153.145 186.512 153.155 186.658 153.347 186.746L158.699 189.105C158.814 189.148 158.94 189.171 159.068 189.171C159.196 189.171 159.323 189.148 159.437 189.105L165.135 186.6C165.327 186.512 165.317 186.373 165.135 186.278L159.773 183.919ZM103.893 208.491C103.779 208.446 103.652 208.423 103.524 208.423C103.395 208.423 103.268 208.446 103.154 208.491L97.4569 210.996C97.2555 211.084 97.2747 211.23 97.4569 211.318L102.809 213.677C102.922 213.72 103.047 213.743 103.173 213.743C103.3 213.743 103.425 213.72 103.538 213.677L109.235 211.172C109.437 211.084 109.427 210.945 109.235 210.85L103.893 208.491ZM175.436 177.031C175.321 176.988 175.195 176.965 175.067 176.965C174.939 176.965 174.813 176.988 174.698 177.031L168.991 179.522C168.799 179.609 168.808 179.756 168.991 179.851L174.343 182.203C174.457 182.247 174.584 182.271 174.712 182.271C174.841 182.271 174.967 182.247 175.081 182.203L180.779 179.704C180.971 179.617 180.961 179.471 180.779 179.376L175.436 177.031ZM199.645 166.389C199.53 166.345 199.404 166.323 199.276 166.323C199.148 166.323 199.022 166.345 198.907 166.389L194.274 168.426C194.082 168.514 194.092 168.66 194.274 168.748L199.626 171.107C199.741 171.15 199.867 171.173 199.995 171.173C200.123 171.173 200.25 171.15 200.365 171.107L204.988 169.077C205.189 168.989 205.18 168.843 204.988 168.748L199.645 166.389ZM214.464 158.193L219.087 156.155C219.289 156.075 219.279 155.929 219.087 155.834L213.735 153.482C213.621 153.437 213.494 153.413 213.366 153.413C213.238 153.413 213.111 153.437 212.997 153.482L208.316 155.505C208.124 155.593 208.134 155.739 208.316 155.826L213.668 158.178C213.782 158.227 213.91 158.253 214.04 158.256C214.17 158.258 214.299 158.237 214.416 158.193H214.464ZM184.222 158.047L188.855 156.009C189.047 155.921 189.037 155.775 188.855 155.688L183.503 153.336C183.389 153.291 183.262 153.267 183.133 153.267C183.005 153.267 182.878 153.291 182.764 153.336L178.141 155.366C177.94 155.454 177.949 155.6 178.141 155.695L183.493 158.047C183.6 158.083 183.716 158.102 183.834 158.102C183.951 158.102 184.067 158.083 184.174 158.047H184.222ZM168.876 178.229L182.4 172.276C182.592 172.195 182.582 172.049 182.4 171.954L177.048 169.602C176.933 169.558 176.807 169.534 176.678 169.534C176.55 169.534 176.423 169.558 176.309 169.602L162.785 175.548C162.584 175.636 162.603 175.782 162.785 175.877L168.137 178.229C168.25 178.269 168.373 178.289 168.498 178.287C168.622 178.286 168.745 178.264 168.856 178.222L168.876 178.229ZM206.935 161.151C207.049 161.196 207.176 161.22 207.304 161.22C207.433 161.22 207.559 161.196 207.673 161.151L212.297 159.121C212.498 159.033 212.479 158.887 212.297 158.792L206.954 156.44C206.839 156.397 206.713 156.374 206.585 156.374C206.457 156.374 206.33 156.397 206.215 156.44L201.535 158.5C201.343 158.587 201.353 158.734 201.535 158.821L206.935 161.151ZM200.029 157.806L204.652 155.768C204.853 155.688 204.844 155.542 204.652 155.447L199.31 153.095C199.195 153.05 199.069 153.026 198.94 153.026C198.812 153.026 198.685 153.05 198.571 153.095L193.929 155.118C193.737 155.205 193.746 155.352 193.929 155.439L199.281 157.791C199.392 157.837 199.516 157.862 199.643 157.865C199.77 157.867 199.895 157.847 200.01 157.806H200.029ZM162.104 181.18L166.737 179.142C166.928 179.054 166.919 178.908 166.737 178.821L161.317 176.49C161.203 176.446 161.077 176.422 160.948 176.422C160.82 176.422 160.693 176.446 160.579 176.49L155.956 178.528C155.754 178.609 155.774 178.755 155.956 178.85L161.298 181.202C161.419 181.251 161.554 181.277 161.692 181.277C161.829 181.277 161.964 181.251 162.085 181.202L162.104 181.18ZM192.01 167.725C192.125 167.77 192.251 167.793 192.38 167.793C192.508 167.793 192.635 167.77 192.749 167.725L197.372 165.687C197.573 165.607 197.564 165.461 197.372 165.366L192.02 163.014C191.906 162.969 191.779 162.946 191.651 162.946C191.522 162.946 191.396 162.969 191.281 163.014L186.582 165.074C186.39 165.161 186.399 165.307 186.582 165.395L192.01 167.725ZM128.323 196.066L132.946 194.036C133.147 193.948 133.128 193.802 132.946 193.707L127.526 191.37C127.412 191.325 127.286 191.301 127.157 191.301C127.029 191.301 126.902 191.325 126.788 191.37L122.155 193.4C121.963 193.488 121.973 193.634 122.155 193.729L127.507 196.081C127.627 196.125 127.76 196.147 127.893 196.145C128.027 196.142 128.158 196.115 128.275 196.066H128.323ZM135.037 193.093L139.66 191.063C139.861 190.975 139.852 190.829 139.66 190.734L134.308 188.382C134.193 188.339 134.066 188.316 133.938 188.316C133.81 188.316 133.684 188.339 133.569 188.382L128.936 190.42C128.745 190.508 128.754 190.654 128.936 190.741L134.288 193.093C134.404 193.139 134.532 193.163 134.663 193.163C134.793 193.163 134.921 193.139 135.037 193.093ZM121.513 199.039L126.136 197.009C126.337 196.921 126.318 196.775 126.136 196.68L120.784 194.328C120.669 194.285 120.542 194.262 120.414 194.262C120.286 194.262 120.16 194.285 120.045 194.328L115.422 196.358C115.23 196.446 115.24 196.592 115.422 196.687L120.774 199.039C120.889 199.082 121.015 199.105 121.143 199.105C121.271 199.105 121.398 199.082 121.513 199.039ZM148.561 187.148L153.193 185.11C153.385 185.022 153.376 184.883 153.193 184.788L147.841 182.436C147.727 182.391 147.601 182.368 147.472 182.368C147.344 182.368 147.217 182.391 147.103 182.436L142.48 184.474C142.278 184.562 142.288 184.701 142.48 184.796L147.832 187.148C147.945 187.191 148.07 187.214 148.196 187.214C148.323 187.214 148.448 187.191 148.561 187.148ZM141.847 190.12L146.47 188.083C146.671 188.002 146.662 187.856 146.47 187.761L141.118 185.409C141.003 185.364 140.877 185.341 140.748 185.341C140.62 185.341 140.493 185.364 140.379 185.409L135.746 187.447C135.555 187.535 135.564 187.681 135.746 187.768L141.098 190.12C141.208 190.161 141.327 190.181 141.449 190.181C141.57 190.181 141.689 190.161 141.799 190.12H141.847ZM155.371 184.175L160.003 182.137C160.195 182.049 160.186 181.903 160.003 181.815L154.603 179.463C154.489 179.419 154.363 179.395 154.234 179.395C154.106 179.395 153.979 179.419 153.865 179.463L149.242 181.501C149.04 181.582 149.05 181.728 149.242 181.823L154.594 184.175C154.707 184.218 154.832 184.241 154.958 184.241C155.085 184.241 155.21 184.218 155.323 184.175H155.371ZM186.255 140.18C186.37 140.225 186.496 140.249 186.625 140.249C186.753 140.249 186.88 140.225 186.994 140.18L191.627 138.142C191.819 138.055 191.809 137.916 191.627 137.821L190.198 137.193C190.083 137.148 189.957 137.125 189.828 137.125C189.7 137.125 189.573 137.148 189.459 137.193L184.836 139.223C184.644 139.311 184.654 139.457 184.836 139.552L186.255 140.18ZM152.982 156.542C153.097 156.585 153.224 156.608 153.352 156.608C153.48 156.608 153.606 156.585 153.721 156.542L158.344 154.512C158.545 154.424 158.536 154.278 158.344 154.183L153.002 151.831C152.887 151.786 152.761 151.763 152.632 151.763C152.504 151.763 152.377 151.786 152.263 151.831L147.63 153.861C147.438 153.949 147.448 154.095 147.63 154.19L152.982 156.542ZM166.506 150.589C166.621 150.634 166.747 150.657 166.876 150.657C167.004 150.657 167.131 150.634 167.245 150.589L171.868 148.566C172.07 148.485 172.06 148.339 171.868 148.244L166.516 145.892C166.401 145.849 166.275 145.827 166.147 145.827C166.019 145.827 165.892 145.849 165.778 145.892L161.145 147.93C160.953 148.018 160.963 148.164 161.145 148.252L166.506 150.589ZM144.724 160.172C144.839 160.216 144.965 160.238 145.093 160.238C145.221 160.238 145.348 160.216 145.463 160.172L150.086 158.142C150.287 158.054 150.268 157.908 150.086 157.813L144.743 155.461C144.628 155.418 144.502 155.396 144.374 155.396C144.246 155.396 144.12 155.418 144.005 155.461L139.372 157.492C139.18 157.579 139.19 157.726 139.372 157.82L144.724 160.172ZM159.744 153.599C159.859 153.642 159.986 153.664 160.114 153.664C160.242 153.664 160.368 153.642 160.483 153.599L165.106 151.568C165.308 151.48 165.298 151.334 165.106 151.239L159.754 148.887C159.639 148.844 159.513 148.822 159.385 148.822C159.257 148.822 159.13 148.844 159.015 148.887L154.383 150.925C154.191 151.013 154.201 151.159 154.383 151.247L159.744 153.599ZM131.2 166.147C131.313 166.191 131.438 166.213 131.564 166.213C131.691 166.213 131.816 166.191 131.929 166.147L136.562 164.11C136.753 164.022 136.744 163.876 136.562 163.788L131.19 161.422C131.076 161.378 130.949 161.356 130.821 161.356C130.693 161.356 130.567 161.378 130.452 161.422L125.829 163.438C125.627 163.525 125.646 163.671 125.829 163.766L131.2 166.147ZM137.914 163.175C138.028 163.219 138.155 163.243 138.283 163.243C138.412 163.243 138.538 163.219 138.653 163.175L143.276 161.144C143.477 161.056 143.458 160.91 143.276 160.815L137.924 158.463C137.81 158.42 137.686 158.398 137.559 158.398C137.433 158.398 137.308 158.42 137.195 158.463L132.562 160.494C132.37 160.582 132.38 160.728 132.562 160.823L137.914 163.175ZM172.683 146.155C172.798 146.2 172.924 146.224 173.053 146.224C173.181 146.224 173.308 146.2 173.422 146.155L178.045 144.117C178.247 144.037 178.237 143.891 178.045 143.796L176.664 143.161C176.549 143.117 176.423 143.095 176.295 143.095C176.167 143.095 176.04 143.117 175.925 143.161L171.302 145.191C171.101 145.279 171.11 145.425 171.302 145.52L172.683 146.155ZM192.97 137.237C193.084 137.282 193.21 137.305 193.339 137.305C193.467 137.305 193.594 137.282 193.708 137.237L198.341 135.199C198.533 135.111 198.523 134.965 198.341 134.877L196.921 134.249C196.806 134.206 196.68 134.184 196.552 134.184C196.424 134.184 196.298 134.206 196.183 134.249L191.55 136.287C191.358 136.375 191.368 136.521 191.55 136.609L192.97 137.237ZM204.211 142.182C204.326 142.225 204.452 142.247 204.58 142.247C204.708 142.247 204.835 142.225 204.949 142.182L209.582 140.151C209.774 140.064 209.764 139.917 209.582 139.822L204.23 137.47C204.115 137.427 203.989 137.405 203.861 137.405C203.733 137.405 203.606 137.427 203.491 137.47L198.897 139.508C198.696 139.596 198.705 139.742 198.897 139.837L204.211 142.182ZM221.121 155.249L225.744 153.211C225.945 153.124 225.936 152.985 225.744 152.89L220.392 150.538C220.278 150.493 220.151 150.47 220.023 150.47C219.894 150.47 219.767 150.493 219.653 150.538L215.03 152.532C214.838 152.62 214.848 152.759 215.03 152.853L220.382 155.205C220.502 155.26 220.638 155.29 220.778 155.293C220.917 155.295 221.055 155.27 221.178 155.22L221.121 155.249ZM179.541 143.161C179.656 143.205 179.782 143.229 179.911 143.229C180.039 143.229 180.166 143.205 180.28 143.161L184.903 141.123C185.104 141.042 185.095 140.896 184.903 140.801L183.474 140.173C183.359 140.13 183.233 140.107 183.105 140.107C182.977 140.107 182.85 140.13 182.735 140.173L178.112 142.204C177.911 142.291 177.93 142.437 178.112 142.532L179.541 143.161ZM124.438 169.091C124.552 169.136 124.679 169.159 124.807 169.159C124.936 169.159 125.062 169.136 125.176 169.091L129.809 167.053C130.001 166.966 129.991 166.819 129.809 166.732L124.457 164.38C124.343 164.335 124.216 164.312 124.088 164.312C123.959 164.312 123.833 164.335 123.719 164.38L119.115 166.418C118.913 166.498 118.932 166.644 119.115 166.739L124.438 169.091Z" fill="#455A64"/>
<path d="M154.435 200.009L200.1 179.929C200.873 179.63 201.727 179.475 202.594 179.475C203.461 179.475 204.315 179.63 205.088 179.929L231.273 191.441C232.654 192.047 232.654 193.026 231.273 193.632L185.607 213.712C184.835 214.011 183.98 214.167 183.114 214.167C182.247 214.167 181.393 214.011 180.62 213.712L154.435 202.2C153.063 201.594 153.063 200.608 154.435 200.009Z" fill="white"/>
<path d="M238.422 103.454H238.364L230.566 100.035C230.116 99.8817 229.454 100.035 228.648 100.488C221.397 104.71 211.642 106.025 203.71 104.096C203.198 103.732 202.711 103.346 202.252 102.942L202.108 102.818C201.88 102.616 201.607 102.446 201.303 102.314L201.168 102.256L193.361 98.8445C192.469 98.5231 191.663 98.8445 191.126 99.8525C183.587 114.118 167.521 128.573 156.807 132.189C155.997 132.466 155.277 132.875 154.697 133.387C153.927 134.024 153.502 134.859 153.508 135.724L155.052 167.754C155.052 177.009 160.184 186.782 170.648 191.537L178.724 195.087L178.868 195.146C183.234 197.013 188.171 197.968 193.179 197.914C194.301 197.914 195.442 197.877 196.622 197.79C198.917 197.503 201.044 196.693 202.722 195.467C226.135 177.053 237.52 152.13 237.52 138.339L239.017 104.798C239.074 104.074 238.844 103.629 238.422 103.454Z" fill="#0033CC"/>
<path d="M239.012 104.797L237.468 138.302C237.468 152.093 226.082 177.015 202.67 195.43C200.991 196.655 198.864 197.465 196.569 197.752C195.39 197.84 194.248 197.877 193.126 197.877C188.119 197.93 183.182 196.975 178.815 195.108L178.671 195.05L178.393 194.918C167.929 190.163 162.797 180.39 162.797 171.135L161.32 139.105C161.315 138.24 161.74 137.405 162.51 136.768C163.089 136.256 163.81 135.847 164.62 135.57C175.334 131.918 191.399 117.499 198.938 103.234C199.476 102.226 200.291 101.897 201.183 102.218L201.317 102.277C201.622 102.408 201.894 102.579 202.123 102.781L202.267 102.905C210.266 109.998 225.996 109.99 236.499 103.869C237.295 103.409 237.957 103.263 238.417 103.416H238.475C238.839 103.628 239.069 104.074 239.012 104.797Z" fill="#0033CC"/>
<path opacity="0.4" d="M238.369 103.409C237.918 103.255 237.256 103.409 236.45 103.862C226.562 109.625 212.03 109.968 203.695 104.052C211.666 105.987 221.401 104.672 228.633 100.443C229.429 99.983 230.091 99.8369 230.552 99.9903L238.369 103.409Z" fill="white"/>
<path opacity="0.4" d="M201.139 102.213C200.247 101.891 199.432 102.213 198.895 103.228C191.356 117.493 175.29 131.949 164.576 135.564C163.766 135.841 163.046 136.25 162.466 136.762C162.265 136.937 162.085 137.125 161.929 137.325L154.141 133.899C154.296 133.703 154.472 133.517 154.668 133.344C154.776 133.249 154.891 133.158 155.013 133.074L155.148 132.971L155.282 132.876C155.725 132.576 156.227 132.33 156.769 132.146C167.482 128.53 183.548 114.075 191.087 99.8095C191.624 98.8015 192.43 98.4801 193.322 98.8015L201.139 102.213Z" fill="white"/>
<path d="M155.02 133.06C155.06 133.024 155.105 132.993 155.154 132.965L155.02 133.067C155.02 133.067 155.01 133.06 155.02 133.06Z" fill="#0033CC"/>
<path opacity="0.15" d="M155.158 132.936L155.023 133.038C155.063 133 155.108 132.966 155.158 132.936Z" fill="black"/>
<path opacity="0.15" d="M178.837 195.102L178.694 195.051L170.618 191.494C160.153 186.738 155.022 176.965 155.022 167.71L153.477 135.681C153.461 135.05 153.691 134.429 154.139 133.898L161.928 137.324C161.486 137.854 161.259 138.472 161.275 139.099L162.82 171.129C162.82 180.384 167.951 190.12 178.415 194.912L178.694 195.043L178.837 195.102Z" fill="black"/>
<path d="M206.403 165.634L193.934 171.112L195.852 153.94C194.365 153.341 193.406 151.865 193.406 149.74C193.406 145.963 196.428 141.566 200.12 139.93C203.813 138.294 206.834 140.032 206.834 143.809C206.76 146.05 205.92 148.237 204.398 150.156L206.403 165.634Z" fill="white"/>
<path d="M206.381 165.637L195.092 160.67L193.922 171.115L206.381 165.637Z" fill="white"/>
<path d="M200.161 139.93C197.715 141.004 195.596 143.253 194.406 145.737L204.487 150.156C206.009 148.237 206.849 146.05 206.923 143.809C206.894 140.032 203.883 138.294 200.161 139.93Z" fill="white"/>
<path d="M44.2266 265.391V268.24C44.2266 271.6 47.104 274.953 52.9357 277.516C61.7024 281.366 74.5742 282.308 85.3647 280.343L95.3783 284.726L103.052 283.396L108.298 285.712L108.586 290.54L111.463 291.789L118.571 292.264L123.673 294.455V297.18L130.09 299.992H146.396L152.237 297.428V294.55L100.117 274.514C102.328 272.866 103.619 270.632 103.723 268.276V265.355C102.936 262.564 99.8863 261.125 95.0234 258.985C83.408 253.872 64.5894 253.872 52.9741 258.985C47.7179 261.323 44.7541 262.389 44.2266 265.391ZM60.1869 262.053C62.0329 261.34 64.0735 260.969 66.1433 260.969C68.213 260.969 70.2536 261.34 72.0996 262.053C75.3895 263.514 75.3895 265.844 72.0996 267.29C70.2536 268.003 68.213 268.375 66.1433 268.375C64.0735 268.375 62.0329 268.003 60.1869 267.29C56.897 265.873 56.897 263.499 60.1869 262.053Z" fill="#0033CC"/>
<path opacity="0.1" d="M44.2266 265.391V268.24C44.2266 271.6 47.104 274.953 52.9357 277.516C61.7024 281.366 74.5742 282.308 85.3647 280.343L95.3783 284.726L103.052 283.396L108.298 285.712L108.586 290.54L111.463 291.789L118.571 292.264L123.673 294.455V297.18L130.09 299.992H146.396L152.237 297.428V294.55L100.117 274.514C102.328 272.866 103.619 270.632 103.723 268.276V265.355C102.936 262.564 99.8863 261.125 95.0234 258.985C83.408 253.872 64.5894 253.872 52.9741 258.985C47.7179 261.323 44.7541 262.389 44.2266 265.391ZM60.1869 262.053C62.0329 261.34 64.0735 260.969 66.1433 260.969C68.213 260.969 70.2536 261.34 72.0996 262.053C75.3895 263.514 75.3895 265.844 72.0996 267.29C70.2536 268.003 68.213 268.375 66.1433 268.375C64.0735 268.375 62.0329 268.003 60.1869 267.29C56.897 265.873 56.897 263.499 60.1869 262.053Z" fill="black"/>
<path d="M52.9346 274.639C61.7012 278.496 74.5731 279.438 85.3636 277.466L95.3772 281.848L103.05 280.526L108.297 282.835L108.585 287.67L111.462 288.912L118.57 289.387L124.113 291.739L123.672 294.281L130.089 297.1H146.395L152.236 294.536L100.115 271.615C106.254 266.655 104.566 260.322 95.0223 256.13C83.4069 251.017 64.5883 251.017 52.9729 256.13C41.3576 261.243 41.3192 269.526 52.9346 274.639ZM60.1858 259.176C62.0317 258.463 64.0724 258.091 66.1421 258.091C68.2119 258.091 70.2525 258.463 72.0985 259.176C75.3884 260.637 75.3884 262.967 72.0985 264.413C70.2525 265.126 68.2119 265.497 66.1421 265.497C64.0724 265.497 62.0317 265.126 60.1858 264.413C56.8959 262.952 56.8959 260.615 60.1858 259.168V259.176Z" fill="#0033CC"/>
<path opacity="0.3" d="M73.9595 275.954C66.5836 275.954 59.7065 274.712 54.5846 272.462C50.0958 270.49 47.5156 267.912 47.5156 265.392C47.5156 262.872 50.0958 260.279 54.5846 258.314C59.7065 256.064 66.5836 254.822 73.9595 254.822C81.3354 254.822 88.2126 256.064 93.3345 258.314C97.8233 260.293 100.403 262.864 100.403 265.392C100.403 267.919 97.8233 270.505 93.3345 272.462C88.2126 274.712 81.3354 275.954 73.9595 275.954ZM73.9595 255.83C66.8138 255.83 60.1669 257.021 55.2368 259.183C51.17 260.973 48.8393 263.237 48.8393 265.392C48.8393 267.547 51.17 269.774 55.2368 271.593C60.1669 273.784 66.8138 274.953 73.9595 274.953C81.1052 274.953 87.7522 273.755 92.6822 271.593C96.749 269.804 99.0798 267.539 99.0798 265.392C99.0798 263.244 96.749 261.009 92.6822 259.183C87.7522 257.021 81.1052 255.83 73.9595 255.83Z" fill="black"/>
<path opacity="0.1" d="M63.2578 277.561V280.483C70.5479 281.69 78.0989 281.65 85.3663 280.366V277.488C78.0941 278.754 70.5442 278.779 63.2578 277.561Z" fill="black"/>
<path opacity="0.1" d="M95.375 281.861V284.746L103.067 283.417V280.539L95.375 281.861Z" fill="black"/>
<path opacity="0.1" d="M108.32 282.85V285.735L108.608 290.563V287.685L108.32 282.85Z" fill="black"/>
<path opacity="0.1" d="M111.438 288.926V291.811L118.545 292.286V289.401L111.438 288.926Z" fill="black"/>
<path opacity="0.1" d="M146.359 297.113H130.062V299.999H146.359V297.113Z" fill="black"/>
<path opacity="0.15" d="M152.201 294.543V297.428L146.359 299.992V297.114L148.911 295.989V297.231L150.33 296.61V295.354L152.201 294.543Z" fill="black"/>
<path d="M150.326 295.355L148.906 295.991V297.233L150.326 296.612V295.355Z" fill="#0033CC"/>
<path opacity="0.15" d="M150.329 295.354V296.61L96.875 273.105L98.285 272.477L150.329 295.354Z" fill="black"/>
<path opacity="0.15" d="M98.285 272.477V273.733L96.875 273.105L98.285 272.477Z" fill="black"/>
</svg>
