<?xml version="1.0" encoding="utf-8"?>
<!-- Generator: Adobe Illustrator 16.0.0, SVG Export Plug-In . SVG Version: 6.00 Build 0)  -->
<!DOCTYPE svg PUBLIC "-//W3C//DTD SVG 1.1//EN" "http://www.w3.org/Graphics/SVG/1.1/DTD/svg11.dtd">
<svg version="1.1" id="Layer_1" xmlns="http://www.w3.org/2000/svg" xmlns:xlink="http://www.w3.org/1999/xlink" x="0px" y="0px"
	 width="220px" height="220px" viewBox="0 0 220 220" enable-background="new 0 0 220 220" xml:space="preserve">
<g>
	<path fill="#FFFFFF" d="M220,26.633C220,11.945,208.051,0,193.367,0H26.633C11.949,0,0,11.945,0,26.633v129.684
		c0,14.688,11.949,26.633,26.633,26.633h48.164l-6.367,25.473H47.477c-3.199,0-5.789,2.59-5.789,5.789S44.277,220,47.477,220h25.473
		h74.105h0.09h25.383c3.195,0,5.789-2.59,5.789-5.789s-2.594-5.789-5.789-5.789h-20.953l-6.367-25.473h48.164
		c14.684,0,26.629-11.945,26.629-26.633V26.633z M139.641,208.422H80.363l6.367-25.473h46.539L139.641,208.422z M193.371,171.371
		h-55.582H82.211H26.633c-8.297,0-15.051-6.754-15.051-15.055V26.633c0-8.301,6.75-15.051,15.051-15.051h166.734
		c8.301,0,15.051,6.75,15.051,15.051l0.004,129.684C208.422,164.617,201.672,171.371,193.371,171.371z"/>
	<path fill="#FFFFFF" d="M109.98,66.094c-3.398,3.387-5.27,7.895-5.273,12.691c-0.004,4.805,1.867,9.32,5.254,12.711
		c3.395,3.402,7.91,5.273,12.719,5.273l0,0c4.797,0,9.309-1.867,12.707-5.262c7.004-7.008,7.004-18.41-0.004-25.422
		C128.59,59.309,116.742,59.324,109.98,66.094z M127.199,83.32c-1.207,1.207-2.816,1.871-4.52,1.871l0,0
		c-1.707,0-3.313-0.664-4.523-1.875c-1.207-1.211-1.871-2.813-1.871-4.523c0-1.699,0.668-3.301,1.879-4.508
		c1.207-1.207,2.809-1.871,4.516-1.871c1.711,0,3.313,0.66,4.516,1.863C129.688,76.77,129.688,80.832,127.199,83.32z"/>
	<path fill="#FFFFFF" d="M167.715,39.688c0-1.855-0.926-3.43-2.277-4.488c-0.008-0.008-0.016-0.016-0.023-0.027
		c-0.055-0.043-0.137-0.082-0.199-0.125c-0.645-0.457-1.363-0.762-2.16-0.922c-5.297-1.551-15.93-1.703-16.059-1.703
		c-14.059,0-34.277,3.461-50.754,19.945c-1.211,1.207-2.426,2.531-3.645,3.895H70.531c-1.801,0-3.5,0.84-4.594,2.266L42.887,88.563
		c-1.344,1.746-1.574,4.105-0.602,6.082s2.988,3.23,5.191,3.23h24.195l4.188,4.184c-2.004,0.844-3.871,2.02-5.457,3.598
		c-3.391,3.395-5.262,7.902-5.258,12.699v12.184c0,3.199,2.59,5.789,5.789,5.789h12.172c0.004,0,0.02,0,0.027,0
		c4.797,0,9.309-1.871,12.699-5.266c1.566-1.574,2.77-3.41,3.656-5.375l4.113,4.109V154c0,2.207,1.25,4.219,3.227,5.195
		c0.813,0.398,1.688,0.598,2.563,0.598c1.25,0,2.492-0.41,3.523-1.203l30.031-23.059c1.43-1.098,2.262-2.793,2.262-4.594v-22.059
		c1.367-1.215,2.691-2.434,3.902-3.645c24.762-24.758,19.969-58.34,18.598-65.5C167.707,39.719,167.715,39.703,167.715,39.688z
		 M87.637,122.879c-1.203,1.207-2.805,1.871-4.504,1.871h-0.02h-6.391v-6.398c0-1.699,0.664-3.301,1.867-4.504
		c2.398-2.398,6.621-2.426,9.047,0c1.207,1.203,1.871,2.805,1.867,4.508C89.504,120.063,88.84,121.672,87.637,122.879z
		 M73.387,67.84h9.91c-5.465,7.41-10.09,14.617-12.473,18.457H59.219L73.387,67.84z M133.629,128.086l-18.449,14.168v-11.609
		c3.836-2.387,11.043-7.004,18.449-12.465V128.086z M140.926,97.047c-8.852,8.852-23.719,18.633-30.684,23.023L81.398,91.23
		c4.395-6.965,14.176-21.828,23.035-30.676c18.32-18.336,43.051-17.191,52.355-15.883C158.043,53.848,159.34,78.633,140.926,97.047z
		"/>
</g>
</svg>
