<svg width="200" height="150" viewBox="0 0 200 150" fill="none" xmlns="http://www.w3.org/2000/svg">
<g clip-path="url(#clip0_61_441)">
<path d="M36.3593 149.254V139.327C36.3593 135.52 33.9577 133.039 29.8413 133.039C27.7835 133.039 25.5538 133.7 24.0101 135.852C22.8101 134.031 21.0952 133.039 18.5226 133.039C16.8069 133.039 15.0929 133.535 13.7202 135.355V133.369H10.1187V149.254H13.7202V140.484C13.7202 137.672 15.264 136.348 17.6655 136.348C20.0655 136.348 21.2671 137.837 21.2671 140.484V149.254H24.8687V140.484C24.8687 137.672 26.5827 136.348 28.8124 136.348C31.214 136.348 32.414 137.837 32.414 140.484V149.254H36.3593ZM89.696 133.369H83.8655V128.571H80.264V133.369H77.0054V136.513H80.2632V143.794C80.2632 147.435 81.8069 149.585 85.9233 149.585C87.4671 149.585 89.1812 149.089 90.3827 148.428L89.353 145.449C88.3241 146.11 87.1241 146.276 86.2663 146.276C84.5515 146.276 83.8655 145.284 83.8655 143.628V136.513H89.696V133.369ZM120.224 133.038C118.166 133.038 116.794 134.031 115.937 135.355V133.369H112.335V149.254H115.937V140.319C115.937 137.672 117.137 136.183 119.366 136.183C120.052 136.183 120.91 136.348 121.596 136.513L122.625 133.204C121.939 133.039 120.91 133.039 120.224 133.039V133.038ZM74.0897 134.693C72.3741 133.535 69.9733 133.039 67.4007 133.039C63.2851 133.039 60.5413 135.024 60.5413 138.168C60.5413 140.816 62.5991 142.305 66.2007 142.801L67.9155 142.967C69.8022 143.297 70.8312 143.794 70.8312 144.622C70.8312 145.78 69.4593 146.607 67.0577 146.607C64.6569 146.607 62.7702 145.78 61.5694 144.953L59.8546 147.6C61.7413 148.923 64.314 149.585 66.8858 149.585C71.6882 149.585 74.4327 147.435 74.4327 144.456C74.4327 141.643 72.203 140.153 68.7726 139.657L67.0577 139.492C65.514 139.326 64.314 138.996 64.314 138.003C64.314 136.844 65.514 136.183 67.4007 136.183C69.4593 136.183 71.5171 137.009 72.546 137.506L74.0897 134.693ZM169.789 133.039C167.73 133.039 166.359 134.031 165.501 135.355V133.369H161.899V149.254H165.501V140.319C165.501 137.672 166.701 136.183 168.93 136.183C169.617 136.183 170.475 136.348 171.161 136.513L172.19 133.204C171.504 133.039 170.475 133.039 169.789 133.039ZM123.826 141.312C123.826 146.11 127.255 149.585 132.573 149.585C134.973 149.585 136.688 149.089 138.403 147.766L136.688 144.953C135.316 145.945 133.944 146.441 132.401 146.441C129.485 146.441 127.427 144.456 127.427 141.312C127.427 138.334 129.485 136.348 132.401 136.183C133.944 136.183 135.316 136.679 136.688 137.672L138.403 134.859C136.688 133.535 134.973 133.039 132.573 133.039C127.255 133.039 123.826 136.513 123.826 141.312ZM157.098 141.312V133.369H153.496V135.355C152.295 133.866 150.58 133.039 148.351 133.039C143.72 133.039 140.119 136.513 140.119 141.312C140.119 146.11 143.72 149.585 148.351 149.585C150.751 149.585 152.467 148.758 153.496 147.269V149.254H157.098V141.312ZM143.891 141.312C143.891 138.499 145.778 136.183 148.865 136.183C151.78 136.183 153.839 138.334 153.839 141.312C153.839 144.125 151.78 146.441 148.865 146.441C145.778 146.276 143.891 144.125 143.891 141.312ZM100.844 133.039C96.0421 133.039 92.6116 136.348 92.6116 141.312C92.6116 146.276 96.0413 149.585 101.016 149.585C103.416 149.585 105.818 148.924 107.705 147.435L105.989 144.953C104.617 145.945 102.902 146.607 101.187 146.607C98.9577 146.607 96.728 145.614 96.2132 142.801H108.391V141.478C108.562 136.348 105.476 133.039 100.844 133.039ZM100.844 136.017C103.073 136.017 104.618 137.341 104.96 139.823H96.3851C96.728 137.672 98.2718 136.017 100.844 136.017ZM190.198 141.312V127.082H186.596V135.355C185.395 133.866 183.68 133.039 181.451 133.039C176.82 133.039 173.219 136.513 173.219 141.312C173.219 146.11 176.82 149.585 181.451 149.585C183.852 149.585 185.567 148.758 186.596 147.269V149.254H190.198V141.312ZM176.992 141.312C176.992 138.499 178.878 136.183 181.966 136.183C184.881 136.183 186.939 138.334 186.939 141.312C186.939 144.125 184.881 146.441 181.966 146.441C178.878 146.276 176.992 144.125 176.992 141.312ZM56.596 141.312V133.369H52.9944V135.355C51.7937 133.866 50.0788 133.039 47.8491 133.039C43.2187 133.039 39.6171 136.513 39.6171 141.312C39.6171 146.11 43.2187 149.585 47.8491 149.585C50.2507 149.585 51.9655 148.758 52.9944 147.269V149.254H56.596V141.312ZM43.2187 141.312C43.2187 138.499 45.1054 136.183 48.1921 136.183C51.1077 136.183 53.1663 138.334 53.1663 141.312C53.1663 144.125 51.1077 146.441 48.1921 146.441C45.1054 146.276 43.2187 144.125 43.2187 141.312Z" fill="black"/>
<path d="M72.8892 12.7407H126.913V106.397H72.8892V12.7407Z" fill="#FF5F00"/>
<path d="M76.3195 59.5696C76.3195 40.5407 85.5805 23.6623 99.8148 12.741C89.3539 4.79849 76.1484 0 61.7422 0C27.6117 0 0 26.6405 0 59.5696C0 92.498 27.6117 119.139 61.7414 119.139C76.1477 119.139 89.3531 114.341 99.8148 106.397C85.5805 95.642 76.3195 78.5985 76.3195 59.5696Z" fill="#EB001B"/>
<path d="M199.802 59.5696C199.802 92.498 172.19 119.139 138.06 119.139C123.654 119.139 110.449 114.341 99.9868 106.397C114.393 95.4769 123.483 78.5985 123.483 59.5696C123.483 40.5407 114.221 23.6623 99.9868 12.741C110.448 4.79849 123.654 0 138.06 0C172.19 0 199.802 26.8063 199.802 59.5696Z" fill="#F79E1B"/>
</g>
<defs>
<clipPath id="clip0_61_441">
<rect width="200" height="150" fill="white"/>
</clipPath>
</defs>
</svg>
