<svg width="200" height="83" viewBox="0 0 200 83" fill="none" xmlns="http://www.w3.org/2000/svg">
<g clip-path="url(#clip0_92_7489)">
<path d="M103.435 26.428C103.321 37.944 111.453 44.37 117.579 48.191C123.873 52.111 125.987 54.625 125.962 58.131C125.915 63.496 120.941 65.864 116.288 65.956C108.168 66.117 103.447 63.15 99.6938 60.906L96.7687 78.425C100.534 80.646 107.507 82.583 114.737 82.668C131.71 82.668 142.814 71.944 142.874 55.317C142.941 34.215 120.071 33.047 120.227 23.615C120.281 20.755 122.413 17.703 127.085 16.927C129.398 16.535 135.781 16.235 143.019 20.501L145.859 3.55097C141.967 1.73697 136.965 -3.05176e-05 130.737 -3.05176e-05C114.762 -3.05176e-05 103.526 10.87 103.435 26.428ZM173.155 1.45997C170.055 1.45997 167.444 3.77397 166.278 7.32497L142.034 81.423H158.994L162.369 69.484H183.094L185.052 81.423H200L186.955 1.45997H173.155ZM175.527 23.061L180.422 53.088H167.017L175.527 23.061ZM82.8719 1.46097L69.5031 81.422H85.6648L99.0273 1.45897H82.8719M58.9633 1.45897L42.1414 55.886L35.3367 9.60897C34.5383 4.44297 31.3852 1.45997 27.8836 1.45997H0.385156L0 3.78197C5.64531 5.34997 12.0594 7.87897 15.9453 10.585C18.3234 12.238 19.0016 13.683 19.7828 17.611L32.6711 81.423H49.75L75.9344 1.45997L58.9633 1.45897Z" fill="url(#paint0_linear_92_7489)"/>
</g>
<defs>
<linearGradient id="paint0_linear_92_7489" x1="9194.8" y1="248.5" x2="9500.93" y2="-8237.32" gradientUnits="userSpaceOnUse">
<stop stop-color="#222357"/>
<stop offset="1" stop-color="#254AA5"/>
</linearGradient>
<clipPath id="clip0_92_7489">
<rect width="200" height="83" fill="white"/>
</clipPath>
</defs>
</svg>
