<svg width="200" height="150" viewBox="0 0 200 150" fill="none" xmlns="http://www.w3.org/2000/svg">
<g clip-path="url(#clip0_60_5980)">
<path d="M36.3598 149.254V139.327C36.3598 135.52 33.9582 133.039 29.8418 133.039C27.784 133.039 25.5543 133.7 24.0105 135.852C22.8105 134.031 21.0957 133.039 18.523 133.039C16.8074 133.039 15.0934 133.535 13.7207 135.355V133.369H10.1191V149.254H13.7207V140.484C13.7207 137.672 15.2645 136.348 17.666 136.348C20.066 136.348 21.2676 137.837 21.2676 140.484V149.254H24.8691V140.484C24.8691 137.672 26.5832 136.348 28.8129 136.348C31.2145 136.348 32.4145 137.837 32.4145 140.484V149.254H36.3598ZM89.6965 133.369H83.866V128.571H80.2644V133.369H77.0059V136.513H80.2637V143.794C80.2637 147.435 81.8074 149.585 85.9238 149.585C87.4676 149.585 89.1816 149.089 90.3832 148.428L89.3535 145.449C88.3246 146.11 87.1246 146.276 86.2668 146.276C84.5519 146.276 83.866 145.284 83.866 143.628V136.513H89.6965V133.369ZM120.225 133.038C118.167 133.038 116.795 134.031 115.937 135.355V133.369H112.336V149.254H115.937V140.319C115.937 137.672 117.137 136.183 119.367 136.183C120.053 136.183 120.911 136.348 121.596 136.513L122.625 133.204C121.939 133.039 120.911 133.039 120.225 133.039V133.038ZM74.0902 134.693C72.3746 133.535 69.9738 133.039 67.4012 133.039C63.2855 133.039 60.5418 135.024 60.5418 138.168C60.5418 140.816 62.5996 142.305 66.2012 142.801L67.916 142.967C69.8027 143.297 70.8316 143.794 70.8316 144.622C70.8316 145.78 69.4598 146.607 67.0582 146.607C64.6574 146.607 62.7707 145.78 61.5699 144.953L59.8551 147.6C61.7418 148.923 64.3145 149.585 66.8863 149.585C71.6887 149.585 74.4332 147.435 74.4332 144.456C74.4332 141.643 72.2035 140.153 68.773 139.657L67.0582 139.492C65.5145 139.326 64.3144 138.996 64.3144 138.003C64.3144 136.844 65.5145 136.183 67.4012 136.183C69.4598 136.183 71.5176 137.009 72.5465 137.506L74.0902 134.693ZM169.789 133.039C167.731 133.039 166.359 134.031 165.501 135.355V133.369H161.9V149.254H165.501V140.319C165.501 137.672 166.702 136.183 168.931 136.183C169.618 136.183 170.475 136.348 171.161 136.513L172.19 133.204C171.504 133.039 170.475 133.039 169.789 133.039ZM123.826 141.312C123.826 146.11 127.256 149.585 132.573 149.585C134.974 149.585 136.689 149.089 138.404 147.766L136.689 144.953C135.317 145.945 133.945 146.441 132.401 146.441C129.486 146.441 127.428 144.456 127.428 141.312C127.428 138.334 129.486 136.348 132.401 136.183C133.945 136.183 135.317 136.679 136.689 137.672L138.404 134.859C136.689 133.535 134.974 133.039 132.573 133.039C127.256 133.039 123.826 136.513 123.826 141.312ZM157.098 141.312V133.369H153.496V135.355C152.296 133.866 150.581 133.039 148.351 133.039C143.721 133.039 140.119 136.513 140.119 141.312C140.119 146.11 143.721 149.585 148.351 149.585C150.752 149.585 152.468 148.758 153.496 147.269V149.254H157.098V141.312ZM143.892 141.312C143.892 138.499 145.779 136.183 148.865 136.183C151.781 136.183 153.839 138.334 153.839 141.312C153.839 144.125 151.781 146.441 148.865 146.441C145.779 146.276 143.892 144.125 143.892 141.312ZM100.845 133.039C96.0426 133.039 92.6121 136.348 92.6121 141.312C92.6121 146.276 96.0418 149.585 101.016 149.585C103.417 149.585 105.818 148.924 107.705 147.435L105.989 144.953C104.618 145.945 102.903 146.607 101.188 146.607C98.9582 146.607 96.7285 145.614 96.2137 142.801H108.391V141.478C108.563 136.348 105.476 133.039 100.845 133.039ZM100.845 136.017C103.074 136.017 104.618 137.341 104.961 139.823H96.3856C96.7285 137.672 98.2723 136.017 100.845 136.017ZM190.198 141.312V127.082H186.596V135.355C185.396 133.866 183.681 133.039 181.451 133.039C176.821 133.039 173.219 136.513 173.219 141.312C173.219 146.11 176.821 149.585 181.451 149.585C183.853 149.585 185.568 148.758 186.596 147.269V149.254H190.198V141.312ZM176.993 141.312C176.993 138.499 178.879 136.183 181.966 136.183C184.882 136.183 186.939 138.334 186.939 141.312C186.939 144.125 184.882 146.441 181.966 146.441C178.879 146.276 176.993 144.125 176.993 141.312ZM56.5965 141.312V133.369H52.9949V135.355C51.7941 133.866 50.0793 133.039 47.8496 133.039C43.2191 133.039 39.6176 136.513 39.6176 141.312C39.6176 146.11 43.2191 149.585 47.8496 149.585C50.2512 149.585 51.966 148.758 52.9949 147.269V149.254H56.5965V141.312ZM43.2191 141.312C43.2191 138.499 45.1059 136.183 48.1926 136.183C51.1082 136.183 53.1668 138.334 53.1668 141.312C53.1668 144.125 51.1082 146.441 48.1926 146.441C45.1059 146.276 43.2191 144.125 43.2191 141.312Z" fill="black"/>
<path d="M72.8887 12.7407H126.912V106.397H72.8887V12.7407Z" fill="#FF5F00"/>
<path d="M76.3195 59.5696C76.3195 40.5407 85.5805 23.6623 99.8148 12.741C89.3539 4.79849 76.1484 0 61.7422 0C27.6117 0 0 26.6405 0 59.5696C0 92.498 27.6117 119.139 61.7414 119.139C76.1477 119.139 89.3531 114.341 99.8148 106.397C85.5805 95.642 76.3195 78.5985 76.3195 59.5696Z" fill="#EB001B"/>
<path d="M199.801 59.5696C199.801 92.498 172.189 119.139 138.06 119.139C123.654 119.139 110.448 114.341 99.9863 106.397C114.393 95.4769 123.482 78.5985 123.482 59.5696C123.482 40.5407 114.221 23.6623 99.9863 12.741C110.447 4.79849 123.654 0 138.06 0C172.189 0 199.801 26.8063 199.801 59.5696Z" fill="#F79E1B"/>
</g>
<defs>
<clipPath id="clip0_60_5980">
<rect width="200" height="150" fill="white"/>
</clipPath>
</defs>
</svg>
